<svg id="Layer_1" data-name="Layer 1" xmlns="http://www.w3.org/2000/svg" viewBox="0 0 128 128"><g id="_24-hours" data-name=" 24-hours"><path id="Path_92" data-name="Path 92" d="M118.83,64.87H104.17a2.39,2.39,0,0,0-2.4,2.39h0A37.8,37.8,0,0,1,66.4,105v-4a2.4,2.4,0,0,0-4.8,0v4a37.83,37.83,0,0,1-35.3-35.3h3.88a2.4,2.4,0,0,0,0-4.79H26.3a37.82,37.82,0,0,1,35.3-35.3V33.7a2.44,2.44,0,0,0,2.49,2.37,2.41,2.41,0,0,0,1.27-.4L85.45,21.76A2.42,2.42,0,0,0,86,18.37a2.39,2.39,0,0,0-.55-.55L65.36,3.92a2.43,2.43,0,0,0-3.76,2v4.2A56.59,56.59,0,0,0,40,15.3a2.4,2.4,0,0,0,2,4.35,52.12,52.12,0,0,1,22-4.82,2.4,2.4,0,0,0,2.4-2.4h0v-2l13.48,9.33L66.4,29.13v-2A2.41,2.41,0,0,0,64,24.7h0a42.57,42.57,0,1,0,42.5,45h9.88A52.44,52.44,0,1,1,26.91,30.2c.06-.07.13-.13.19-.19a2.4,2.4,0,0,0-3.37-3.41,57.23,57.23,0,1,0,97.5,40.67,2.4,2.4,0,0,0-2.4-2.4Z"/><path id="Path_93" data-name="Path 93" d="M52.6,65.17a26.51,26.51,0,0,0-6.73,5.89c-1.29,1.84-2.79,9,1,9H60.77c2.14,0,2.16-4.54,0-4.54H49.64a3.9,3.9,0,0,1,1.3-3.33c2.08-2,4.62-3.43,6.88-5.19,4.39-3.43,6.58-10.3,1.43-14.15-4.44-3.32-11.73-2.22-14,3.15-.86,2-.56,5.78,2.61,5,2.28-.52,1.57-3.25,3-4.64a3.82,3.82,0,0,1,5.39.36A3.7,3.7,0,0,1,57,58.17c.73,3-2.35,5.46-4.41,7Z"/><path id="Path_94" data-name="Path 94" d="M78.55,79.61c1.19.7,4.4.74,4.4-1.25V73.45h1.87c2.16,0,2.23-4.54,0-4.54H83V64.53c0-2.36-5.17-2.36-5.17,0v4.38H73.12l7.64-15.28C82,51.24,77.29,50,76.18,52.3L66.75,70.7a1.79,1.79,0,0,0,1.47,2.75h9.55v4.91a1.43,1.43,0,0,0,.78,1.25Z"/><path id="Path_95" data-name="Path 95" d="M61.79,92.32a2.39,2.39,0,1,0,1.29-3.13h0A2.41,2.41,0,0,0,61.79,92.32Z"/><path id="Path_96" data-name="Path 96" d="M30.6,23.36a2.4,2.4,0,1,0,1.3-3.13l-.27.13A2.42,2.42,0,0,0,30.6,23.36Z"/></g></svg>