<svg id="Layer_1" data-name="Layer 1" xmlns="http://www.w3.org/2000/svg" viewBox="0 0 128 128"><path id="Path_24" data-name="Path 24" d="M113.77,46.25l13.5-13.5a2.52,2.52,0,0,0,0-3.54,2.62,2.62,0,0,0-.57-.42l-16.23-8.91A2.5,2.5,0,0,0,108,24.2l.1.06,13.31,7.31L109.79,43.15,68.12,20.27,79.71,8.69l11.72,6.43a2.5,2.5,0,0,0,2.5-4.33.31.31,0,0,0-.1,0L80.48,3.4a2.5,2.5,0,0,0-3,.43L64,17.33,50.5,3.83a2.5,2.5,0,0,0-3-.43L1.3,28.79a2.49,2.49,0,0,0-1,3.39,2.62,2.62,0,0,0,.42.57l13.5,13.5L.73,59.76a2.5,2.5,0,0,0,0,3.53,2.33,2.33,0,0,0,.57.42l14,7.67V97a2.51,2.51,0,0,0,1.29,2.19L62.79,124.6a2.51,2.51,0,0,0,2.41,0l46.23-25.39a2.5,2.5,0,0,0,1.3-2.19V71.38l14-7.67a2.5,2.5,0,0,0,1-3.39,2.67,2.67,0,0,0-.43-.57ZM64,68.79,23,46.24,64,23.71l41,22.54ZM48.29,8.69,59.87,20.27,18.21,43.15,6.62,31.56ZM18.21,49.34,59.88,72.22,48.29,83.8,6.62,60.92Zm89.51,46.2L66.5,118.18V92.62a2.5,2.5,0,0,0-5,0v25.56L20.26,95.54V74.12l27.26,15a2.5,2.5,0,0,0,3-.42L64,75.17l13.5,13.5a2.5,2.5,0,0,0,3,.42l27.26-15Zm-28-11.73L68.12,72.22l41.67-22.88,11.59,11.58Z"/><path id="Path_25" data-name="Path 25" d="M101.2,20.14a2.51,2.51,0,1,0-1.77-.74A2.51,2.51,0,0,0,101.2,20.14Z"/><path id="Path_26" data-name="Path 26" d="M64,81.82a2.51,2.51,0,1,0,1.77.74A2.56,2.56,0,0,0,64,81.82Z"/></svg>