<svg id="Layer_1" data-name="Layer 1" xmlns="http://www.w3.org/2000/svg" viewBox="0 0 128 128"><g id="delivery-box"><g id="Group_164" data-name="Group 164"><path d="M93.09,94.15v5.27a2.53,2.53,0,1,1-5.06,0V94.15a2.53,2.53,0,0,1,5.06,0Z"/></g><g id="Group_165" data-name="Group 165"><path id="Path_61" data-name="Path 61" d="M126.33,77.85A37.58,37.58,0,0,0,98.44,52.31l-.65-.14V9.05a7.43,7.43,0,0,0-7.43-7.43H7.43A7.45,7.45,0,0,0,0,9.05v30.1a1.72,1.72,0,0,0,3.44,0V9.05a4,4,0,0,1,4-4h24.3V38.72a1.72,1.72,0,0,0,1.72,1.72,1.62,1.62,0,0,0,.9-.26l14.56-8.95,14.54,9a1.78,1.78,0,0,0,1.31.22,1.69,1.69,0,0,0,1.06-.77,1.63,1.63,0,0,0,.26-.91V5.07H90.36a4,4,0,0,1,4,4V51.66l-.87-.08c-1-.06-2-.1-2.92-.1A37.48,37.48,0,0,0,53.12,88.93a36.86,36.86,0,0,0,.5,6.11l.15.93H7.43a4,4,0,0,1-4-4V61.89a1.72,1.72,0,0,0-3.44,0V92a7.47,7.47,0,0,0,7.43,7.44H54.62l.16.56a37.45,37.45,0,0,0,71.55-22.13ZM62.64,35.64,49.8,27.73a1.67,1.67,0,0,0-1.8,0L35.18,35.64V5.07H62.64Zm27.92,87.29a34,34,0,0,1,0-68h0a34,34,0,0,1,0,68Z"/><path id="Path_62" data-name="Path 62" d="M104.84,81.63l-.63-.14V75.34A11.35,11.35,0,0,0,92.89,64H88.23A11.37,11.37,0,0,0,76.89,75.34v6.15l-.6.14a5.41,5.41,0,0,0-4.16,5.23v8.42a18.41,18.41,0,1,0,36.82,0V86.86A5.38,5.38,0,0,0,104.84,81.63Zm-24.5-6.29a7.91,7.91,0,0,1,7.87-7.88h4.68a7.93,7.93,0,0,1,7.88,7.88v6.15H80.34Zm25.19,20a15,15,0,0,1-29.95,0V86.86a1.94,1.94,0,0,1,1.94-1.92h26.06a2,2,0,0,1,2,1.92Z"/><path d="M18.47,72.6a1.72,1.72,0,0,1-1.72,1.72h-2a1.72,1.72,0,0,1,0-3.44h2A1.72,1.72,0,0,1,18.47,72.6Z"/><path d="M44,72.6a1.72,1.72,0,0,1-1.73,1.72H26.89a1.72,1.72,0,0,1,0-3.44H42.24A1.72,1.72,0,0,1,44,72.6Z"/><path d="M44,84.61a1.72,1.72,0,0,1-1.73,1.72H14.72a1.72,1.72,0,0,1,0-3.44H42.24A1.72,1.72,0,0,1,44,84.61Z"/><path d="M3.46,50.53a1.72,1.72,0,0,1-1.72,1.72h0a1.7,1.7,0,0,1-1.21-.51A1.67,1.67,0,0,1,0,50.53a1.74,1.74,0,0,1,.51-1.24,1.78,1.78,0,0,1,1.23-.5A1.66,1.66,0,0,1,3,49.31,1.72,1.72,0,0,1,3.46,50.53Z"/></g></g></svg>