<svg id="Layer_1" data-name="Layer 1" xmlns="http://www.w3.org/2000/svg" viewBox="0 0 128 128"><g id="Group_30" data-name="Group 30"><g id="cctv"><g id="Group_194" data-name="Group 194"><g id="Group_193" data-name="Group 193"><path id="Path_104" data-name="Path 104" d="M127.77,60.25a2.24,2.24,0,0,0-.93-1l-.8-.48-72-41.16a12.83,12.83,0,0,0-16.46,3.7L23.51,41.51a11.36,11.36,0,0,0,2.8,15.76c.26.18.54.36.82.52l15.74,9.08-3,4.06A11,11,0,0,0,40,84.42l.18.24-4.36,6.56H15.3V82.75A2.27,2.27,0,0,0,13,80.49H2.27A2.29,2.29,0,0,0,0,82.75v26.87a2.28,2.28,0,0,0,2.27,2.27H13a2.26,2.26,0,0,0,2.28-2.27v-3.08H35.57a15.62,15.62,0,0,0,13-7l4.55-6.85.28.08a11.66,11.66,0,0,0,2.49.34,12,12,0,0,0,10.13-5.75l3.16-5.26.34.21L92.39,95.49a2.3,2.3,0,0,0,3.11-.83l.06-.12,2.12-4.22.26,0a3,3,0,0,1,.42,0,4.24,4.24,0,0,0,.53,0A18.46,18.46,0,0,0,117.28,72a16.49,16.49,0,0,0-.42-3.42l-.06-.3,9.94-5A2.33,2.33,0,0,0,127.77,60.25Zm-117,47.09H4.57V85.06h6.18ZM44.82,97A11.11,11.11,0,0,1,35.57,102H15.3v-6.2H35.57a4.9,4.9,0,0,0,4.1-2.19l3.95-5.9,5.29,3.18ZM62.13,85a7.45,7.45,0,0,1-6.3,3.45,7.33,7.33,0,0,1-3.64-1l-6.82-4.09a6.63,6.63,0,0,1-2.28-9.13,2.87,2.87,0,0,1,.39-.59l3.36-4.49L65.25,79.85Zm30.46,5.3-.39-.2L29.41,53.91a6.76,6.76,0,0,1-3.12-4.11A6.67,6.67,0,0,1,27,44.69a2.8,2.8,0,0,1,.3-.49l7-9.92.32.18L101.3,73Zm8.11-4.65-.75.1,6-12,6.62-3.3.06.58c0,.11,0,.23,0,.33a4.32,4.32,0,0,1,.06.7A13.84,13.84,0,0,1,100.7,85.69Zm3.64-16.25-.18-.1L36.83,30.52l4.53-6.46A7.92,7.92,0,0,1,51.83,21.7l69.08,39.49Z"/><path d="M90.45,77.42a2.29,2.29,0,1,1-2.29-2.28A2.27,2.27,0,0,1,90.45,77.42Z"/></g></g></g></g></svg>