<svg id="Layer_1" data-name="Layer 1" xmlns="http://www.w3.org/2000/svg" viewBox="0 0 128 128"><g id="Group_169" data-name="Group 169"><path id="Path_77" data-name="Path 77" d="M64,0a64,64,0,1,0,64,64A64.08,64.08,0,0,0,64,0Zm0,121.41A57.36,57.36,0,1,1,121.41,64,57.47,57.47,0,0,1,64,121.41Z"/><path d="M95.62,95a3.32,3.32,0,0,1-1,2.34,3.4,3.4,0,0,1-2.33,1H92.1a3.28,3.28,0,0,1-2.09-1L61.67,69a3.32,3.32,0,0,1-1-2.33V28.92a3.29,3.29,0,1,1,6.58,0V65.33L94.67,92.68A3.25,3.25,0,0,1,95.62,95Z"/></g></svg>