<svg id="Layer_1" data-name="Layer 1" xmlns="http://www.w3.org/2000/svg" viewBox="0 0 128 128"><g id="Group_30" data-name="Group 30"><g id="shipped"><g id="Group_200" data-name="Group 200"><g id="Group_199" data-name="Group 199"><path id="Path_107" data-name="Path 107" d="M119,57.76,115.73,44.5a2,2,0,0,0,1.58-2V40.4A8.43,8.43,0,0,0,108.89,32H93.8v-4.4a4.14,4.14,0,0,0-4.14-4.14h-77a4.14,4.14,0,0,0-4.14,4.14V63.92a2,2,0,0,0,4,0V27.57a.13.13,0,0,1,.14-.13h77a.13.13,0,0,1,.13.13h0V63.92a2,2,0,0,0,4,0V61.64h23.67a6.57,6.57,0,0,1,6.23,4.55h-6.24a2,2,0,0,0-2,2v4.27a6.29,6.29,0,0,0,6.28,6.28H124v8.82h-5.24a12.69,12.69,0,0,0-24,0h-1V72.47a2,2,0,0,0-4,0v15.1H48.2a12.69,12.69,0,0,0-24,0H12.69a.13.13,0,0,1-.13-.14h0V83h8.68a2,2,0,0,0,0-4H2a2,2,0,0,0,0,4H8.55v4.4a4.14,4.14,0,0,0,4.14,4.14H23.52v.14A12.7,12.7,0,0,0,48.91,92v-.46H94.07v.14a12.69,12.69,0,0,0,25.38.32v-.46H126a2,2,0,0,0,2-2V68.19A10.57,10.57,0,0,0,119,57.76ZM93.8,36h15.1a4.42,4.42,0,0,1,4.4,4.4v.14H93.8Zm0,21.65V44.54h17.8l3.27,13.1ZM36.2,100.39a8.69,8.69,0,1,1,8.69-8.67A8.67,8.67,0,0,1,36.2,100.39Zm70.55,0a8.69,8.69,0,1,1,8.69-8.67,8.68,8.68,0,0,1-8.69,8.67ZM124,74.74h-2.28a2.27,2.27,0,0,1-2.27-2.27V70.2H124v4.54Z"/></g></g><g id="Group_202" data-name="Group 202"><g id="Group_201" data-name="Group 201"><path id="Path_108" data-name="Path 108" d="M36.2,87.57a4.14,4.14,0,1,0,4.15,4.15,4.13,4.13,0,0,0-4.15-4.15Z"/></g></g><g id="Group_204" data-name="Group 204"><g id="Group_203" data-name="Group 203"><path id="Path_109" data-name="Path 109" d="M106.76,87.57a4.14,4.14,0,1,0,4.14,4.15,4.14,4.14,0,0,0-4.14-4.15Z"/></g></g><g id="Group_206" data-name="Group 206"><g id="Group_205" data-name="Group 205"><path id="Path_110" data-name="Path 110" d="M83.24,79H53.31a2,2,0,1,0,0,4H83.24a2,2,0,0,0,0-4Z"/></g></g><g id="Group_208" data-name="Group 208"><g id="Group_207" data-name="Group 207"><path id="Path_111" data-name="Path 111" d="M31.93,70.46H6.28a2,2,0,0,0,0,4H31.93a2,2,0,0,0,0-4Z"/></g></g><g id="Group_210" data-name="Group 210"><g id="Group_209" data-name="Group 209"><path id="Path_112" data-name="Path 112" d="M69.69,43.26a2,2,0,0,0-2.83,0h0L49,61.08l-9.27-9.27a2,2,0,0,0-2.83,2.83h0L47.62,65.33a2,2,0,0,0,2.83,0h0L69.69,46.09a2,2,0,0,0,0-2.83Z"/></g></g></g></g></svg>