<svg id="Layer_1" data-name="Layer 1" xmlns="http://www.w3.org/2000/svg" viewBox="0 0 128 128"><g id="truck"><path id="Path_55" data-name="Path 55" d="M29.57,85.07a6.79,6.79,0,1,0,6.78,6.78A6.79,6.79,0,0,0,29.57,85.07Zm0,10.13a3.35,3.35,0,1,1,3.34-3.35A3.35,3.35,0,0,1,29.57,95.2Z"/><path id="Path_56" data-name="Path 56" d="M98.43,85.07a6.79,6.79,0,1,0,6.79,6.78A6.78,6.78,0,0,0,98.43,85.07Zm0,10.13a3.35,3.35,0,1,1,3.34-3.35A3.35,3.35,0,0,1,98.43,95.2Z"/><path id="Path_57" data-name="Path 57" d="M125.87,80.57l-.4-.24V71.6a11.87,11.87,0,0,0-11.85-11.85h-4.25l-9.64-19.3a9.84,9.84,0,0,0-9.06-6H75.85V26a6.78,6.78,0,0,0-6.79-6.78H34.63a1.72,1.72,0,0,0,0,3.44H69.06A3.35,3.35,0,0,1,72.41,26V80H41.62l-.22-.25a17,17,0,0,0-23.64,0l-.24.25H6V73.32H9.32a1.72,1.72,0,0,0,0-3.44H6V26a3.35,3.35,0,0,1,3.35-3.34h2.53a1.72,1.72,0,1,0,0-3.44H9.32A6.78,6.78,0,0,0,2.53,26v54.3l-.4.24A4.25,4.25,0,0,0,0,84.26v5.06a4.27,4.27,0,0,0,4.25,4.26h8.49l.1.68A16.91,16.91,0,0,0,32,108.58,17,17,0,0,0,46.3,94.26l.1-.68H81.6l.1.68a16.91,16.91,0,0,0,19.16,14.32,17,17,0,0,0,14.3-14.32l.1-.68h8.49A4.27,4.27,0,0,0,128,89.32V84.26A4.25,4.25,0,0,0,125.87,80.57ZM105.52,59.75H86V48H99.65ZM75.85,37.88H90.69a6.38,6.38,0,0,1,6,4.19l1.21,2.49H84.25a1.72,1.72,0,0,0-1.72,1.72V61.47a1.73,1.73,0,0,0,1.72,1.73h29.37a8.41,8.41,0,0,1,7.92,5.59l.38,1.09h-3.24a1.72,1.72,0,0,0,0,3.44H122V80H110.48l-.22-.25a17,17,0,0,0-23.64,0l-.24.25H75.85ZM14.3,84.6a16.5,16.5,0,0,0-1.46,4.82l-.1.71H3.44V83.45H14.87Zm15.27,20.72A13.47,13.47,0,1,1,43,91.85,13.49,13.49,0,0,1,29.57,105.32ZM83.16,84.6a16.5,16.5,0,0,0-1.46,4.82l-.1.71H46.4l-.1-.71a16.69,16.69,0,0,0-1.46-4.82l-.55-1.15H83.73Zm15.27,20.72A13.47,13.47,0,1,1,111.9,91.85,13.49,13.49,0,0,1,98.43,105.32Zm26.13-15.19h-9.3l-.1-.71a16.69,16.69,0,0,0-1.46-4.82l-.55-1.15h11.41Z"/><path id="Path_58" data-name="Path 58" d="M54.91,50.21l-.15-.14L38.5,35.63a1.72,1.72,0,0,0-2.43.14,1.78,1.78,0,0,0-.44,1.16v6H24.77a1.72,1.72,0,0,0-1.72,1.72V58a1.72,1.72,0,0,0,1.72,1.72H35.63v6a1.72,1.72,0,0,0,1,1.56l.16.08a1.73,1.73,0,0,0,1.7-.35L54.76,52.64A1.73,1.73,0,0,0,54.91,50.21ZM39.07,61.94V58a1.72,1.72,0,0,0-1.72-1.72h-10l-.77,0,0-.77V46.39H37.35a1.73,1.73,0,0,0,1.72-1.73V40.73l12,10.6Z"/><path d="M25,21a1.72,1.72,0,0,1-3.44,0A1.72,1.72,0,0,1,25,21Z"/></g></svg>