<svg id="Layer_1" data-name="Layer 1" xmlns="http://www.w3.org/2000/svg" viewBox="0 0 128 128"><path id="big-envelope" d="M128,104.47V23.53a5.73,5.73,0,0,0-1.52-3.89l0-.05a5.77,5.77,0,0,0-4.23-1.85H5.79a5.78,5.78,0,0,0-4.23,1.85l0,.06A5.7,5.7,0,0,0,0,23.53v80.94a5.73,5.73,0,0,0,1.52,3.89l0,0a5.76,5.76,0,0,0,4.23,1.86h116.4a5.75,5.75,0,0,0,4.23-1.85l0,0A5.74,5.74,0,0,0,128,104.47ZM28.4,80.81a2.89,2.89,0,0,0-4.09.08h0L5.79,100.17V27.83L40.52,64l-9.38,9.78a2.9,2.9,0,0,0,4.18,4l9.2-9.6L57.88,82.09a8.44,8.44,0,0,0,11.92.28l.28-.28L83.44,68.17l34.85,36.28H9.69l18.8-19.56A2.89,2.89,0,0,0,28.4,80.81Zm37.53-2.72a2.63,2.63,0,0,1-3.72.11l-.12-.11L9.69,23.53H118.31ZM87.49,64l34.73-36.17v72.34Z"/></svg>