<svg id="Layer_1" data-name="Layer 1" xmlns="http://www.w3.org/2000/svg" viewBox="0 0 128 128"><g id="fast-delivery"><g id="Group_247" data-name="Group 247"><path id="Path_135" data-name="Path 135" d="M58,63.57A23,23,0,1,0,81,86.52,23,23,0,0,0,58,63.57Zm0,40.91a18,18,0,1,1,18-18A18,18,0,0,1,58,104.48Z"/><path id="Path_136" data-name="Path 136" d="M65.19,84H60.5V76.17a2.51,2.51,0,0,0-5,0V86.52A2.5,2.5,0,0,0,58,89h7.2a2.5,2.5,0,0,0,0-5Z"/><path id="Path_137" data-name="Path 137" d="M120.63,8.4H50.48a7.37,7.37,0,0,0-7.36,7.37V57a32.63,32.63,0,0,0-8.07,5.76H24.9a2.5,2.5,0,0,0,0,5h5.88a33.36,33.36,0,0,0-3.13,5.64H15.76a2.5,2.5,0,0,0,0,5H25.94A32.57,32.57,0,0,0,25,84H2.5a2.51,2.51,0,0,0,0,5H25a33.54,33.54,0,0,0,.91,5.63H15.77a2.5,2.5,0,1,0,0,5H27.65a33.27,33.27,0,0,0,3.13,5.63H24.9a2.5,2.5,0,1,0,0,5H35a33.06,33.06,0,0,0,55.36-17h30.25A7.38,7.38,0,0,0,128,85.91V15.77A7.38,7.38,0,0,0,120.63,8.4Zm-44.16,5H94.64V36.08L87,30.74a2.5,2.5,0,0,0-2.86,0l-7.65,5.34ZM58,114.59A28.08,28.08,0,1,1,86.07,86.51,28.08,28.08,0,0,1,58,114.59ZM123,85.9a2.37,2.37,0,0,1-2.37,2.37H91c0-.58,0-1.17,0-1.76A33.09,33.09,0,0,0,48.1,55V15.77a2.37,2.37,0,0,1,2.37-2.37h21V40.86a2.5,2.5,0,0,0,3.93,2l10.15-7.08L95.7,42.91a2.5,2.5,0,0,0,3.93-2V13.41h21A2.37,2.37,0,0,1,123,15.78V85.91Z"/><path id="Path_138" data-name="Path 138" d="M10.42,67.75h4.26a2.5,2.5,0,1,0,0-5H10.42a2.5,2.5,0,0,0,0,5Z"/><path id="Path_139" data-name="Path 139" d="M14.68,105.29H10.41a2.5,2.5,0,1,0,0,5h4.27a2.5,2.5,0,0,0,0-5Z"/></g></g></svg>