<svg id="Layer_1" data-name="Layer 1" xmlns="http://www.w3.org/2000/svg" viewBox="0 0 128 128"><g id="no-fire"><path id="Path_79" data-name="Path 79" d="M106.78,21.22a60.5,60.5,0,1,0,0,85.56A60.49,60.49,0,0,0,106.78,21.22Zm-3.35,82.21a55.76,55.76,0,1,1,0-78.86A55.76,55.76,0,0,1,103.43,103.43Z"/><path id="Path_80" data-name="Path 80" d="M84.84,88.51,49.56,53.24,28.25,31.93a2.37,2.37,0,0,0-3.34,0,1.46,1.46,0,0,0-.16.19,50.57,50.57,0,0,0,36.8,82.41q1.23.06,2.46.06a50.43,50.43,0,0,0,31.88-11.32,2.37,2.37,0,0,0,.34-3.33l-.16-.18ZM79.9,90.26a24.31,24.31,0,0,1-6.17,4.48l-.1-.09c-7.22-6.32-11.19-9.81-13.18-16.51a2.36,2.36,0,0,0-2.94-1.59,2.39,2.39,0,0,0-1,.61A38.21,38.21,0,0,0,47,91.89a19.08,19.08,0,0,1-6-11.74,26.1,26.1,0,0,1,4.31-17.49c.53-.83,1.15-1.65,1.82-2.52.36-.48.75-1,1.14-1.52ZM68.73,96.64a30.28,30.28,0,0,1-5.61.93,21.28,21.28,0,0,1-12.07-2.69,28.76,28.76,0,0,1,6.3-11.61C59.69,88.39,63.38,91.93,68.73,96.64Zm-37.14-.22a45.68,45.68,0,0,1-4.77-59.25l18,18c-.5.72-1,1.39-1.51,2-.73,1-1.42,1.85-2.05,2.86a30.64,30.64,0,0,0-5,20.55c1.4,12.32,12.5,21.69,25.23,21.69.64,0,1.3,0,2-.07a33.42,33.42,0,0,0,10.69-2.55,2.06,2.06,0,0,0,.26-.12,29.14,29.14,0,0,0,8.83-6l7.59,7.58a45.7,45.7,0,0,1-59.25-4.76Z"/><path id="Path_81" data-name="Path 81" d="M114.57,63.43a50.64,50.64,0,0,0-12.1-32.26,2.37,2.37,0,0,0-3.6,3.07,45.76,45.76,0,0,1,2.31,56.59L91.08,80.72a22.66,22.66,0,0,0,.06-12,26.49,26.49,0,0,0-1-3.46c-1.2-3.37-2.43-6.86-.65-17a2.36,2.36,0,0,0-1.92-2.74,2.56,2.56,0,0,0-.62,0,16.67,16.67,0,0,0-13.43,8.7,39.4,39.4,0,0,0-3.1-12.73c-3-6.53-8.21-11.33-16.91-15.56A2.36,2.36,0,0,0,50.3,27a2.41,2.41,0,0,0-.24,1.12,88.82,88.82,0,0,1-.19,11.42L37.17,26.82a46.22,46.22,0,0,1,45.55-4.68,2.36,2.36,0,0,0,2.07-4.25l-.14-.06A50.59,50.59,0,0,0,32.1,24.75a2.37,2.37,0,0,0-.34,3.33l.17.18,54.8,54.79h0l13,13a2.4,2.4,0,0,0,1.67.69h.13a2.37,2.37,0,0,0,1.71-.87A50.58,50.58,0,0,0,114.57,63.43ZM84.27,50.78c-1.16,8.94.23,12.85,1.37,16a26.1,26.1,0,0,1,.89,2.89,21.77,21.77,0,0,1,.57,7L74.3,63.93c2.64-7.77,5.55-11.7,10-13.16ZM54.88,32c11,6.38,13.56,14.08,14.19,26.74l-14.95-15A74.93,74.93,0,0,0,54.88,32Z"/><path id="Path_82" data-name="Path 82" d="M90.86,26.81a2.37,2.37,0,1,0,0-3.35,2.37,2.37,0,0,0,0,3.35Z"/></g></svg>