<svg id="Layer_1" data-name="Layer 1" xmlns="http://www.w3.org/2000/svg" viewBox="0 0 128 128"><path id="Path_35" data-name="Path 35" d="M67.37,60.7H48a20.51,20.51,0,0,0-10.19,2.8L21.4,72.89a6.84,6.84,0,0,0-6.6-5.19h-8A6.74,6.74,0,0,0,0,74.37v40.5a2.22,2.22,0,0,0,2.2,2.2,2.22,2.22,0,0,0,2.2-2.2V74.49A2.65,2.65,0,0,1,7,71.89h8a2.65,2.65,0,0,1,2.6,2.6v43.38a2.65,2.65,0,0,1-2.6,2.6H9.8a2.2,2.2,0,1,0,0,4.39h5a6.74,6.74,0,0,0,6.81-6.67V77.69L40,67.1a16,16,0,0,1,8-2.2H67.37a8,8,0,0,1,8,8v.6a8.17,8.17,0,0,1-5.59,7.8L45.38,89.08a2,2,0,0,0-1.44,2.49.49.49,0,0,1,0,.11,2,2,0,0,0,2.48,1.44l.12,0L71,85.29a12.64,12.64,0,0,0-3.11-24.58Zm-37.78,54a2.2,2.2,0,0,0,0,4.4h8.8a1.9,1.9,0,0,0,2-1.77v-.43a1.89,1.89,0,0,0-1.77-2,.89.89,0,0,0-.23,0h-8.8Zm80.75-43.38L89.76,87.48a7.41,7.41,0,0,1-4,1.4H74a2.2,2.2,0,0,0,0,4.4H85.76a9.93,9.93,0,0,0,6.6-2.4L113,74.69a6.76,6.76,0,0,1,10.79,6.19,6.36,6.36,0,0,1-2.6,4.4L85.36,111.67a14.77,14.77,0,0,1-9,3h-18a1.88,1.88,0,0,0-2,1.77.88.88,0,0,0,0,.23v.2a1.88,1.88,0,0,0,1.76,2H76.36a20.13,20.13,0,0,0,11.6-3.8l35.57-26.39a10.91,10.91,0,1,0-13.19-17.39Zm-62,47.78h0a1.89,1.89,0,0,0,2-1.77.88.88,0,0,0,0-.23v-.2a1.88,1.88,0,0,0-1.77-2,.88.88,0,0,0-.23,0h0a1.88,1.88,0,0,0-2,1.76v.44A2,2,0,0,0,48.38,119.07Zm-28.79-70h-.2a2,2,0,0,0-2,2V60.3a2.2,2.2,0,1,0,4.4,0V51.11a2.33,2.33,0,0,0-2.18-2Zm-.2-9.6a2,2,0,1,0,2,2,2,2,0,0,0-2-2ZM107.15,3.14H26.39a9,9,0,0,0-9,8.92V32.12a1.9,1.9,0,0,0,1.77,2h.43a1.9,1.9,0,0,0,2-1.77V12.13a4.87,4.87,0,0,1,4.79-4.81h24V27.91A5.87,5.87,0,0,0,59,33.11l7.2-3.8a1.71,1.71,0,0,1,1.4,0l7.2,3.8a5.92,5.92,0,0,0,8-2.6,5.84,5.84,0,0,0,.64-2.6V14.13a2.2,2.2,0,1,0-4.4,0V27.92a1.49,1.49,0,0,1-1.39,1.58,1.44,1.44,0,0,1-.81-.18l-7.19-3.8a5.28,5.28,0,0,0-5.4,0L57,29.31a1.48,1.48,0,0,1-2-.59,1.42,1.42,0,0,1-.18-.81V7.53h52.56a4.87,4.87,0,0,1,4.8,4.8v48a2.2,2.2,0,1,0,4.4,0v-48A9.6,9.6,0,0,0,107.15,3.14Z"/></svg>