<svg id="Layer_1" data-name="Layer 1" xmlns="http://www.w3.org/2000/svg" viewBox="0 0 128 128"><g id="Group_234" data-name="Group 234"><g id="Group_166" data-name="Group 166"><path d="M121.88,108.64a7.65,7.65,0,0,1-4.23,4L83.92,125.52a37.25,37.25,0,0,1-27.47-.3l-16.86-7v1.43a1.79,1.79,0,0,1-1.8,1.77H20.35a1.73,1.73,0,0,1-1.27-.53,1.65,1.65,0,0,1-.51-1.24v-.43H7.24a1.78,1.78,0,0,1-1.79-1.77A1.85,1.85,0,0,1,6,116.2a1.82,1.82,0,0,1,1.26-.5H18.57v-2.59a1.78,1.78,0,1,1,3.55,0v4.76H36v-27H22.12v13.5a1.78,1.78,0,0,1-3,1.25,1.75,1.75,0,0,1-.51-1.25V93.06H7.24A1.75,1.75,0,0,1,6,92.54a1.77,1.77,0,0,1,1.26-3H18.55v-.4a1.79,1.79,0,0,1,1.8-1.78H37.81a1.77,1.77,0,0,1,1.78,1.78v25.25l18.21,7.57a33.66,33.66,0,0,0,24.85.28l33.73-12.84a4,4,0,0,0,2.24-2.15,4,4,0,0,0,.06-3.2,3.93,3.93,0,0,0-5.21-2.28l-18.26,7.75a13,13,0,0,1-4.87,1H64a1.78,1.78,0,0,1-1.25-3A1.84,1.84,0,0,1,64,107h26a5.66,5.66,0,0,0,.6,0,1.73,1.73,0,0,1,.37,0,3.69,3.69,0,0,0,2.83-3.57,3.73,3.73,0,0,0-1.06-2.61,3.58,3.58,0,0,0-2.6-1.09H73.28A15.12,15.12,0,0,1,66.57,98a47.45,47.45,0,0,0-21-5H44.36a1.78,1.78,0,1,1,0-3.56h1.16a51.14,51.14,0,0,1,22.64,5.33A11.44,11.44,0,0,0,73.28,96H90.2a7.25,7.25,0,0,1,7.25,7.22c0,.27,0,.51-.06.77l-.1.7,14.81-6.3a7.46,7.46,0,0,1,5.79,0,7.66,7.66,0,0,1,4.13,4.25A7.79,7.79,0,0,1,121.88,108.64Z"/><path id="Path_68" data-name="Path 68" d="M120.29,16.58l0-.12A1.54,1.54,0,0,0,120,16l-.14-.16-.35-.26a.93.93,0,0,1-.2-.1l-.2-.1L71.1.08A1.49,1.49,0,0,0,70.58,0,1.68,1.68,0,0,0,70,.08L22,15.36a1.78,1.78,0,0,0-1.25,1.69v52.4A1.74,1.74,0,0,0,22,71.14l48,15.3a2,2,0,0,0,1.08,0l48-15.3a1.76,1.76,0,0,0,1.23-1.69V17.05A1.37,1.37,0,0,0,120.29,16.58ZM70.56,3.64l.12,0,42,13.37-9.78,3.12-.14,0-42-13.39Zm-15.64,5,.12,0L97.06,22l-9.76,3.1-.12,0-42-13.37Zm61.89,59.23h-.35l.07.41-44.2,14V73.8a1.78,1.78,0,0,0-3.56,0v8.49L24.29,68.14V18.35l15-4.75.12.05L81.43,27,70.56,30.47l-.12,0L34,18.84a1.77,1.77,0,0,0-1.07,3.38L68.77,33.63V65.09a1.78,1.78,0,0,0,1.79,1.77,1.73,1.73,0,0,0,1.77-1.77V33.63l13.18-4.19V44.5a1.81,1.81,0,0,0,2.32,1.69l5.09-1.63a1.78,1.78,0,0,0-1.09-3.38l-2.76.88V28.32l12.08-3.85V38.22l-2.76.86a1.79,1.79,0,0,0,.53,3.49,1.3,1.3,0,0,0,.52-.09l4-1.26a1.79,1.79,0,0,0,1.25-1.71V23.33l12.12-3.85Z"/><path d="M33,56.35v6.54a1.78,1.78,0,1,1-3.56,0V56.35a1.78,1.78,0,1,1,3.56,0Z"/><path d="M41.78,58.52v6.57A1.78,1.78,0,0,1,40,66.86a1.76,1.76,0,0,1-1.77-1.77V58.52A1.77,1.77,0,0,1,40,56.75,1.8,1.8,0,0,1,41.78,58.52Z"/></g></g></svg>