<svg id="Layer_1" data-name="Layer 1" xmlns="http://www.w3.org/2000/svg" viewBox="0 0 128 128"><g id="Mask_Group_7" data-name="Mask Group 7"><g id="key"><path id="Path_101" data-name="Path 101" d="M31.5,30.25a10,10,0,1,0,10-10A10,10,0,0,0,31.5,30.25Zm15,0a5,5,0,1,1-5-5A5,5,0,0,1,46.5,30.25Z"/><path id="Path_102" data-name="Path 102" d="M16.5,30.25a25,25,0,0,0,47.92,10H110.5a2.56,2.56,0,0,0,1.12-.26l15-7.5a2.5,2.5,0,0,0,.65-4l-15-15a2.5,2.5,0,0,0-3.54,0h0L103,19.22l-5.73-5.74a2.52,2.52,0,0,0-3.54,0h0L88,19.22l-5.73-5.74a2.52,2.52,0,0,0-3.54,0h0L72,20.25H64.42a25,25,0,0,0-47.92,10Zm43.86-6.67a2.51,2.51,0,0,0,2.36,1.67H73a2.51,2.51,0,0,0,1.77-.73l5.73-5.73,5.73,5.73a2.52,2.52,0,0,0,3.54,0h0l5.73-5.73,5.73,5.73a2.52,2.52,0,0,0,3.54,0h0l5.73-5.73,10.78,10.78-11.37,5.68H62.72a2.51,2.51,0,0,0-2.36,1.67,20,20,0,1,1,0-13.34Z"/><circle id="Ellipse_17" data-name="Ellipse 17" cx="98" cy="100.75" r="2.5"/><path id="Path_103" data-name="Path 103" d="M103.62,74.6,89.31,84.1A10,10,0,0,0,80.6,79H68.44a5,5,0,0,1-3.31-1.22l-1.76-1.55a25.07,25.07,0,0,0-33,0l-3.78,3.33L20,84.2V82.75a2.5,2.5,0,0,0-2.5-2.5H2.5A2.5,2.5,0,0,0,0,82.75v37.5a2.5,2.5,0,0,0,2.5,2.5h15a2.5,2.5,0,0,0,2.5-2.5h0V114h7.86L71,122.7a2.5,2.5,0,0,0,2-.44l17.44-12.83a2.5,2.5,0,1,0-3-4h0L70.91,117.58,28.6,109.05a2,2,0,0,0-.49,0H20V90.32c10.68-7.55,8.85-6,13.65-10.33a20,20,0,0,1,26.42,0l1.76,1.55A10,10,0,0,0,68.44,84H80.6a5,5,0,0,1,0,10h-30a2.5,2.5,0,1,0,0,5h30a10,10,0,0,0,10-9.76l15.77-10.47a12.46,12.46,0,0,1,15.47,1.34l-16.26,12a2.5,2.5,0,0,0,3,4L127,82.54a2.5,2.5,0,0,0,.56-3.46A17.45,17.45,0,0,0,103.62,74.6ZM15,117.75H5V85.25H15Z"/></g></g></svg>