<svg id="Layer_1" data-name="Layer 1" xmlns="http://www.w3.org/2000/svg" viewBox="0 0 128 128"><g id="discount"><g id="Group_168" data-name="Group 168"><path id="Path_71" data-name="Path 71" d="M124.14,86.47c-1-3.32-4.73-6.25-10.31-4.86l0,0L90.46,87.91a7.45,7.45,0,0,0-8.18-5.7c-1.35.17-5.9.81-10.73,1.5-4.61.65-9.38,1.33-10.69,1.49a59.75,59.75,0,0,1-10.78-.26q-2.16-.18-4.44-.33a2.36,2.36,0,0,0-.4,4.71h.11c1.48.09,2.94.21,4.36.32a62.25,62.25,0,0,0,11.74.24c1.35-.17,5.93-.81,10.77-1.5,4.6-.65,9.35-1.33,10.65-1.49a2.72,2.72,0,0,1,3,2.35c.06.47.22,1.71-3.05,3.21A128.53,128.53,0,0,1,63.2,99.69a2.36,2.36,0,1,0,1.14,4.59l.06,0a132.52,132.52,0,0,0,20.42-7.51,10.86,10.86,0,0,0,4.75-3.69L115,86.2c2.8-.7,4.23.42,4.64,1.71a2.91,2.91,0,0,1-2,3.58l-.06,0c-2,.74-6.71,2.8-12.7,5.41-7.95,3.45-17.84,7.76-25.73,10.92-9.7,3.89-12.46,4.41-22.73,4.3L40.21,112h0a2.37,2.37,0,0,0-2.1,1.28l-2.22,4.32a2.64,2.64,0,0,0-.17.47c-.33,1.23-.74,1.74-2.46,1.74H9.45a1.05,1.05,0,0,1-.76-.44,2.34,2.34,0,0,1-.39-2c2.85-13.59,8.45-22,17.15-25.73a2.36,2.36,0,1,0-1.75-4.39l-.12.05c-10.21,4.37-16.72,13.89-19.9,29.1a7.08,7.08,0,0,0,1.35,6,5.7,5.7,0,0,0,4.42,2.18H33.23a6.6,6.6,0,0,0,6.94-5l1.45-2.8,14.72.16c10.85.12,14.29-.53,24.54-4.64,8-3.19,17.89-7.51,25.86-11,5.71-2.49,10.64-4.64,12.49-5.34h0a7.59,7.59,0,0,0,4.89-9.44Z"/><path id="Path_72" data-name="Path 72" d="M54.55,32.53a7.09,7.09,0,1,0-7.09-7.08h0A7.1,7.1,0,0,0,54.55,32.53Zm0-9.45a2.37,2.37,0,1,1-2.36,2.37A2.36,2.36,0,0,1,54.55,23.08Z"/><path id="Path_73" data-name="Path 73" d="M66.37,44.35a7.09,7.09,0,1,0,7.08-7.09h0A7.1,7.1,0,0,0,66.37,44.35Zm9.45,0A2.37,2.37,0,1,1,73.45,42h0A2.36,2.36,0,0,1,75.82,44.35Z"/><path id="Path_74" data-name="Path 74" d="M54.63,51.12a2.37,2.37,0,0,0,3.23-.86h0L74.23,21.9a2.36,2.36,0,1,0-4.09-2.36h0L53.77,47.89a2.37,2.37,0,0,0,.86,3.23Z"/><path id="Path_75" data-name="Path 75" d="M32,50.36,60.33,78.94A5.19,5.19,0,0,0,64,80.46h0A5.13,5.13,0,0,0,67.66,79l28.59-28.8a5.18,5.18,0,0,0-3.68-8.84H90V10.6a7.1,7.1,0,0,0-7.09-7.09H45.1A7.08,7.08,0,0,0,38,10.6V41.32H35.43a5.19,5.19,0,0,0-3.47,9ZM35.43,46h4.94a2.36,2.36,0,0,0,2.36-2.36V10.6A2.37,2.37,0,0,1,45.1,8.24H82.91a2.37,2.37,0,0,1,2.36,2.36V43.68A2.36,2.36,0,0,0,87.63,46h5a.46.46,0,0,1,.45.47.44.44,0,0,1-.13.31h0L64.32,75.61a.46.46,0,0,1-.32.13h0a.48.48,0,0,1-.32-.13L35.26,47l-.13-.12a.46.46,0,0,1,.3-.81Z"/><path id="Path_76" data-name="Path 76" d="M34.86,84.6A2.37,2.37,0,1,0,37.22,87a2.36,2.36,0,0,0-2.36-2.37h0Z"/></g></g></svg>