<svg id="Layer_1" data-name="Layer 1" xmlns="http://www.w3.org/2000/svg" viewBox="0 0 128 128"><g id="like"><g id="Group_171" data-name="Group 171"><g id="Group_170" data-name="Group 170"><path id="Path_83" data-name="Path 83" d="M45.45,81.68a2.37,2.37,0,1,0,.69,1.67A2.37,2.37,0,0,0,45.45,81.68Z"/></g></g><g id="Group_173" data-name="Group 173"><g id="Group_172" data-name="Group 172"><path id="Path_84" data-name="Path 84" d="M124.49,83.83a10,10,0,0,0-7.82-9.78,10,10,0,0,0-8.35-15.57H82l3.44-10.21a15.94,15.94,0,0,0-10-20.2L75,27.93l-4.15-1.27a2.37,2.37,0,0,0-2.91,1.46l-6.51,18A22.21,22.21,0,0,1,51.15,58.08l-6.5,3.54a7.7,7.7,0,0,0-6.2-3.14H5.87a2.36,2.36,0,0,0-2.36,2.36h0v61.29a2.36,2.36,0,0,0,2.36,2.36H38.45a7.68,7.68,0,0,0,6.64-3.81L48.42,122a36.1,36.1,0,0,0,13.27,2.5H103a10,10,0,0,0,8.32-15.6,10,10,0,0,0,7.38-12.09,10.2,10.2,0,0,0-1.49-3.33A10,10,0,0,0,124.49,83.83Zm-10,5.29H90.16a2.37,2.37,0,0,0,0,4.74h18.77a5.3,5.3,0,0,1,0,10.6H90.16a2.37,2.37,0,0,0,0,4.73H103a5.3,5.3,0,1,1,0,10.6H61.69a31.46,31.46,0,0,1-11.54-2.19l-4-1.57V92.83a2.37,2.37,0,1,0-4.73,0v24a3,3,0,0,1-3,3H8.24V63.21H38.45a3,3,0,0,1,3,2.95v8a2.37,2.37,0,0,0,4.73,0v-8l7.28-4a26.93,26.93,0,0,0,12.45-14.5l5.75-15.89,2,.61a11.21,11.21,0,0,1,7.46,14l-.09.31-4.5,13.33a2.37,2.37,0,0,0,1.48,3,2.48,2.48,0,0,0,.76.13h29.59a5.3,5.3,0,1,1,0,10.59H90.16a2.37,2.37,0,0,0,0,4.74h24.31a5.3,5.3,0,1,1,0,10.59h0Z"/></g></g><g id="Group_175" data-name="Group 175"><g id="Group_174" data-name="Group 174"><path id="Path_85" data-name="Path 85" d="M29.3,101.7a6.62,6.62,0,1,0,6.62,6.62A6.61,6.61,0,0,0,29.3,101.7Zm0,8.51a1.9,1.9,0,1,1,1.9-1.89A1.89,1.89,0,0,1,29.3,110.21Z"/></g></g><g id="Group_177" data-name="Group 177"><g id="Group_176" data-name="Group 176"><path id="Path_86" data-name="Path 86" d="M75.79,4.2a2.37,2.37,0,1,0,.69,1.68A2.37,2.37,0,0,0,75.79,4.2Z"/></g></g><g id="Group_179" data-name="Group 179"><g id="Group_178" data-name="Group 178"><path id="Path_87" data-name="Path 87" d="M74.12,12.33a2.36,2.36,0,0,0-2.36,2.36v5.75a2.37,2.37,0,1,0,4.73,0V14.69a2.36,2.36,0,0,0-2.36-2.36Z"/></g></g><g id="Group_181" data-name="Group 181"><g id="Group_180" data-name="Group 180"><path id="Path_88" data-name="Path 88" d="M105.13,34.52H90.56a2.37,2.37,0,0,0,0,4.74h14.57a2.37,2.37,0,1,0,0-4.74Z"/></g></g><g id="Group_183" data-name="Group 183"><g id="Group_182" data-name="Group 182"><path id="Path_89" data-name="Path 89" d="M57.67,34.52H43.1a2.37,2.37,0,1,0,0,4.73H57.67a2.37,2.37,0,1,0,0-4.73Z"/></g></g><g id="Group_185" data-name="Group 185"><g id="Group_184" data-name="Group 184"><path id="Path_90" data-name="Path 90" d="M62.42,21.85,55.55,15a2.37,2.37,0,0,0-3.41,3.28l.07.06,6.88,6.88a2.36,2.36,0,1,0,3.53-3.14A1.89,1.89,0,0,0,62.42,21.85Z"/></g></g><g id="Group_187" data-name="Group 187"><g id="Group_186" data-name="Group 186"><path id="Path_91" data-name="Path 91" d="M96,15a2.35,2.35,0,0,0-3.34,0l-6.88,6.88a2.36,2.36,0,0,0,3.34,3.34L96,18.32A2.37,2.37,0,0,0,96,15Z"/></g></g></g></svg>