<svg id="Layer_1" data-name="Layer 1" xmlns="http://www.w3.org/2000/svg" viewBox="0 0 128 128"><path d="M128,30.78a5.78,5.78,0,0,0-.08-.6c0-.11,0-.22,0-.33a17,17,0,0,0-17.07-15.4H17.27A16.93,16.93,0,0,0,.15,29.81c0,.15,0,.3-.06.45S0,30.73,0,31V97.22a16.91,16.91,0,0,0,16.75,16.34h93.89A17.18,17.18,0,0,0,128,97ZM16.9,25.46h94.2a5.92,5.92,0,0,1,5.12,3.05L64,62.92,11.81,28.53A5.85,5.85,0,0,1,16.9,25.46Zm93.9,77.08H17.06A5.76,5.76,0,0,1,11,97V41.18L61,74.1a5.5,5.5,0,0,0,6.06,0l50-32.91V96.85C116.88,100.07,114.17,102.35,110.8,102.54Z"/></svg>