<svg id="Layer_1" data-name="Layer 1" xmlns="http://www.w3.org/2000/svg" viewBox="0 0 128 128"><defs><style>.cls-1{stroke:#336bd7;stroke-width:0.2px;}</style></defs><path id="man" class="cls-1" d="M85.2,91.25A8.86,8.86,0,0,1,77.58,87a2.13,2.13,0,0,0-3.64,2.22h0a13.1,13.1,0,0,0,4.46,4.45l-2.22,10-5.32-6.14a2.14,2.14,0,0,0-3-3l-.09.1L64,98.9,54.55,88.41a13.15,13.15,0,0,0,1.45-5A28.55,28.55,0,0,0,92.59,56.11V38.75a14.92,14.92,0,0,0-14.9-14.94H50.47a14.91,14.91,0,0,0-14.94,14.9V52.56a4.39,4.39,0,0,1-2.4-3.91v-26a5.07,5.07,0,0,1,5.07-5,2.12,2.12,0,0,0,2-1.34,19.08,19.08,0,0,1,17.72-12H86.6l-2.65,7A2.14,2.14,0,0,0,85.2,14l.15.05,3.7,1.08a8.59,8.59,0,0,1,6.22,8.22V48.67a2.14,2.14,0,0,0,4.27,0h0V23.26A12.89,12.89,0,0,0,90.24,11l-1.47-.43L91.69,2.9A2.14,2.14,0,0,0,90.45.15,2.21,2.21,0,0,0,89.69,0L57.91,0A23.34,23.34,0,0,0,36.76,13.43a9.35,9.35,0,0,0-7.89,9.2v26a8.69,8.69,0,0,0,6.68,8.44A28.54,28.54,0,0,0,51.78,81.79v.55a8.9,8.9,0,0,1-8.92,8.87h0a22,22,0,0,0-22,21.94v12.66a2.13,2.13,0,0,0,4.26,0h0v-12.6A17.74,17.74,0,0,1,42.8,95.47h0a13.19,13.19,0,0,0,2.8-.3l3,13.51a2.14,2.14,0,0,0,2.55,1.62,2.17,2.17,0,0,0,1.14-.68L60,100.79l1.91,2.13V115.7a2.14,2.14,0,0,0,4.27,0V102.9L68,100.77l7.71,8.88a2.14,2.14,0,0,0,3,.21,2.17,2.17,0,0,0,.68-1.14l3-13.51a14.63,14.63,0,0,0,2.8.3,17.73,17.73,0,0,1,17.74,17.73v12.63a2.13,2.13,0,1,0,4.26,0h0v-12.6a22,22,0,0,0-22-22ZM39.78,56V38.71A10.67,10.67,0,0,1,50.45,28.06h27.2A10.66,10.66,0,0,1,88.31,38.71V56.12A24.27,24.27,0,0,1,39.78,56Zm12.07,47.65-2.2-10a13.81,13.81,0,0,0,2.28-1.75l5.17,5.75Z"/></svg>