<svg id="Layer_1" data-name="Layer 1" xmlns="http://www.w3.org/2000/svg" viewBox="0 0 128 128"><defs><style>.cls-1{stroke:#336bd7;stroke-width:0.2px;}</style></defs><path id="man" class="cls-1" d="M107.19,113.27v12.6a2.14,2.14,0,0,1-4.27,0v-12.6A17.74,17.74,0,0,0,85.2,95.51h0A13.11,13.11,0,0,1,73.9,89.2,2.14,2.14,0,1,1,77.55,87a8.88,8.88,0,0,0,7.62,4.28,22,22,0,0,1,22,22Zm-39.76-23a16.17,16.17,0,0,1-12.6-2.48A13.17,13.17,0,0,0,56,83.41,28.57,28.57,0,0,0,92.53,56c0-18.1,0-17.81,0-18.55a2.14,2.14,0,0,0-4.27.12,2.46,2.46,0,0,0,0,.28c0,.49,0,.91,0,18.13a24.27,24.27,0,0,1-48.53,0c0-4.8,0-8.53-.07-11.32a10.86,10.86,0,0,1,10.76-11,11,11,0,0,1,2.68.31C63,36.43,67,42.6,79.63,42a2.13,2.13,0,1,0-.2-4.26C68,38.29,64.84,32.5,54.09,29.93A15.12,15.12,0,0,0,35.82,41a15.34,15.34,0,0,0-.43,3.7c0,2.27,0,4.75.06,7.81a4.42,4.42,0,0,1-2.4-3.9V37.51a34.89,34.89,0,0,1,9.27-25.36C52,2.82,67.21,2.81,79,6.93l-1.7.7a2.14,2.14,0,0,0,.58,4.09l3.75.4a24.64,24.64,0,0,1,17.69,10.4,18.18,18.18,0,0,0-4.14,11.6V48.67a2.14,2.14,0,1,0,4.27,0V34.1a13.91,13.91,0,0,1,4-9.83,2.28,2.28,0,0,0,.31-2.73A28.81,28.81,0,0,0,86,8.56a2.14,2.14,0,0,0,.26-3A2.37,2.37,0,0,0,85.59,5,50.55,50.55,0,0,0,62.11,0C40.81.85,28.34,16.76,28.79,37.59V48.65a8.7,8.7,0,0,0,6.69,8.44,28.57,28.57,0,0,0,16.24,24.7v.56a8.89,8.89,0,0,1-8.89,8.89h0a22,22,0,0,0-22,22v12.6a2.14,2.14,0,0,0,4.27,0v-12.6A17.74,17.74,0,0,1,42.8,95.49h0a13.13,13.13,0,0,0,9.65-4.19,20.41,20.41,0,0,0,15.87,3.1,2.13,2.13,0,1,0-.91-4.17Zm18.16,26.8h-6.4a2.14,2.14,0,0,0,0,4.27h6.4a2.14,2.14,0,1,0,0-4.27Z"/></svg>