<svg id="Layer_1" data-name="Layer 1" xmlns="http://www.w3.org/2000/svg" viewBox="0 0 128 128"><g id="Group_30" data-name="Group 30"><g id="location"><g id="Path_105" data-name="Path 105"><path d="M108,92.51c-7.9-3.75-17.42-5.58-22.38-6.33l-1.85-.29,1-1.59,8.07-12.68c4.32-6.78,4.32-6.78,4.44-7,0,0,0,0,0,0a40.48,40.48,0,0,0,7.51-23.56A41.26,41.26,0,0,0,79.89,3.24a40.49,40.49,0,0,0-31.74,0A41.38,41.38,0,0,0,26.4,25.13a40.69,40.69,0,0,0-3.22,15.94,40.67,40.67,0,0,0,7.73,23.85l0,0,0,0L43.26,84.3l1,1.59-1.86.29c-4.95.75-14.43,2.58-22.35,6.33S7.9,101,7.9,106.29c0,4.45,3,10.83,17.4,16C35.68,126,49.42,128,64,128c14.21,0,28.27-2.08,38.56-5.71,5.55-2,9.89-4.28,12.86-6.93s4.67-5.81,4.67-9.07C120.1,101,116,96.31,108,92.51ZM35.27,62.1a.85.85,0,0,0-.1-.14,36.48,36.48,0,0,1-5.08-10,35.2,35.2,0,0,1-1.71-10.88A36,36,0,0,1,38.82,15.71,35.21,35.21,0,0,1,64,5.2,35.78,35.78,0,0,1,99.62,41.07a35.23,35.23,0,0,1-6.5,20.48v0l0,0s-.07.09-.09.11c-.16.2-1.61,2.5-11.14,17.44C77.87,85.42,72.45,94,65,105.56l-1,1.63-1-1.63Zm65.33,55.38c-9.81,3.43-22.79,5.32-36.59,5.32s-26.72-1.87-36.52-5.3c-9.14-3.18-14.39-7.27-14.39-11.21,0-2.87,3.09-6.07,8.52-8.8,4.28-2.14,12.08-5.06,25-6.65l.78-.1.41.65,14,22a2.61,2.61,0,0,0,2.2,1.2,2.55,2.55,0,0,0,2.18-1.2l14-22,.41-.65.78.1c12.9,1.59,20.7,4.51,25,6.65,5.41,2.73,8.5,5.93,8.5,8.8C114.9,110.23,109.69,114.3,100.6,117.48Z"/></g><g id="Group_198" data-name="Group 198"><g id="Group_197" data-name="Group 197"><g id="Path_106" data-name="Path 106"><path d="M64,22.77a18.29,18.29,0,1,0,18.28,18.3A18.32,18.32,0,0,0,64,22.77Zm0,30.57A12.28,12.28,0,1,1,76.28,41.07,12.3,12.3,0,0,1,64,53.34Z"/></g></g></g></g></g></svg>