<svg id="Layer_1" data-name="Layer 1" xmlns="http://www.w3.org/2000/svg" viewBox="0 0 128 128"><g id="Group_91" data-name="Group 91"><path id="Path_18" data-name="Path 18" d="M116.61,22.1A212.47,212.47,0,0,1,65.38.37a2.74,2.74,0,0,0-2.74,0A206.69,206.69,0,0,1,11.4,22.1a2.7,2.7,0,0,0-2,2.6V52.21a79.16,79.16,0,0,0,24,57.83C45.26,121.61,59,128,64,128s18.74-6.4,30.54-18a79.16,79.16,0,0,0,24-57.83V24.7A2.71,2.71,0,0,0,116.61,22.1ZM113.2,52.21a73.85,73.85,0,0,1-22.42,54c-11.61,11.37-24,16.43-26.76,16.43s-15.18-5.05-26.78-16.43a73.86,73.86,0,0,1-22.43-54V26.75A212.45,212.45,0,0,0,64,5.81,219.36,219.36,0,0,0,113.2,26.75Z"/><path id="Path_19" data-name="Path 19" d="M40.14,26.45a2.69,2.69,0,0,0-3.5-1.52h0C31.83,26.82,26.9,28.57,22,30.11a2.7,2.7,0,0,0-1.89,2.57v10.4a2.7,2.7,0,0,0,5.39,0h0V34.65c4.42-1.43,8.83-3,13.15-4.71a2.7,2.7,0,0,0,1.52-3.49Z"/><path id="Path_20" data-name="Path 20" d="M45.25,27a2.68,2.68,0,0,0,1.08-.22l.05,0a2.69,2.69,0,1,0-2.1-5l-.07,0,0,0A2.69,2.69,0,0,0,45.26,27Z"/><path id="Path_21" data-name="Path 21" d="M96.09,86.83a2.68,2.68,0,0,0-3.73.78,65.42,65.42,0,0,1-7.74,9.66,68.9,68.9,0,0,1-7.72,6.87,2.69,2.69,0,0,0,3.26,4.29A74.32,74.32,0,0,0,88.49,101a71,71,0,0,0,8.38-10.47A2.69,2.69,0,0,0,96.09,86.83Z"/><path id="Path_22" data-name="Path 22" d="M70.64,108.37l-.15.09a2.7,2.7,0,1,0,2.71,4.66l.18-.11a2.69,2.69,0,0,0-2.64-4.69l-.09.05Z"/><path id="Path_23" data-name="Path 23" d="M45.65,58.51A8.75,8.75,0,0,0,33.27,70.89l15.9,15.9a8.75,8.75,0,0,0,12.37,0v0L94.74,53.6A8.75,8.75,0,1,0,82.36,41.22l-27,27ZM86.17,45a3.37,3.37,0,1,1,4.77,4.77L57.74,83A3.37,3.37,0,0,1,53,83l-15.9-15.9a3.37,3.37,0,1,1,4.77-4.77L53.46,73.92a2.68,2.68,0,0,0,3.8,0h0Z"/></g></svg>