<svg id="Layer_1" data-name="Layer 1" xmlns="http://www.w3.org/2000/svg" viewBox="0 0 128 128"><path d="M64.39,128H63.6a72.37,72.37,0,0,1-20.23-2.89,53,53,0,0,1-17.55-8.77,42.53,42.53,0,0,1-12.23-15A47.36,47.36,0,0,1,9.11,80.13,52.9,52.9,0,0,1,13.81,58,109.91,109.91,0,0,1,24.44,39.38L52.54,0h55.38l-29,37.57a47.44,47.44,0,0,1,12.55,2.64,42,42,0,0,1,13.92,8.18,40,40,0,0,1,9.84,13.35,42.79,42.79,0,0,1,3.69,18.17,46.94,46.94,0,0,1-4.46,20.88A44.3,44.3,0,0,1,102.22,116,52.65,52.65,0,0,1,84.64,125,70.78,70.78,0,0,1,64.39,128Zm-.4-5.19a69.29,69.29,0,0,0,19.17-2.75A47.44,47.44,0,0,0,99,111.89a38.94,38.94,0,0,0,10.74-13.35,41.77,41.77,0,0,0,4-18.63,37.61,37.61,0,0,0-3.23-16,34.71,34.71,0,0,0-8.56-11.61,36.73,36.73,0,0,0-12.2-7.16,42,42,0,0,0-14.19-2.47H68.14l5-6.09L97.35,5.19H55.22L28.67,42.39a105.49,105.49,0,0,0-10.13,17.7A47.76,47.76,0,0,0,14.3,80.18a42.28,42.28,0,0,0,4,18.9A37.35,37.35,0,0,0,29,112.22a48,48,0,0,0,15.83,7.91A67.22,67.22,0,0,0,64,122.81ZM64.56,95l-.68,0a14.43,14.43,0,0,1-10.59-4.32A14.73,14.73,0,0,1,49.09,80a14.13,14.13,0,0,1,4.24-10.3A14.78,14.78,0,0,1,64,65.45a15,15,0,0,1,11,4.2A14.27,14.27,0,0,1,79.25,80.1,14.65,14.65,0,0,1,75,90.63,14.89,14.89,0,0,1,64.56,95Zm-.65-5.2A10,10,0,0,0,71.37,87a9.56,9.56,0,0,0,2.69-6.86,9.1,9.1,0,0,0-2.69-6.74,9.7,9.7,0,0,0-7.25-2.73h-.21A9.55,9.55,0,0,0,57,73.35,9,9,0,0,0,54.28,80,9.56,9.56,0,0,0,57,87,9.37,9.37,0,0,0,63.91,89.75Z"/></svg>