<svg id="Layer_1" data-name="Layer 1" xmlns="http://www.w3.org/2000/svg" viewBox="0 0 128 128"><g id="phone-call"><path id="Path_50" data-name="Path 50" d="M119.11,4.57h-46a1.88,1.88,0,0,0,0,3.75h46a5.14,5.14,0,0,1,5.14,5.13V61.73a5.14,5.14,0,0,1-5.14,5.14h-7.35a1.83,1.83,0,0,0-1.1.36L97.88,76.49V68.74A1.88,1.88,0,0,0,96,66.87H55.31a5.14,5.14,0,0,1-5.14-5.14V13.45a5.14,5.14,0,0,1,5.14-5.13h9.6a1.88,1.88,0,0,0,0-3.75h-9.6a8.89,8.89,0,0,0-8.89,8.88V61.73a8.9,8.9,0,0,0,8.89,8.89H94.13v9.54a1.88,1.88,0,0,0,3,1.52l15.27-11.06h6.74A8.89,8.89,0,0,0,128,61.73V13.45A8.89,8.89,0,0,0,119.11,4.57Z"/><path id="Path_51" data-name="Path 51" d="M108.89,103.66a8.73,8.73,0,0,0-4.51-6.52L96,92.6a1.88,1.88,0,1,0-1.8,3.29h0l8.33,4.54a5,5,0,0,1,2.6,3.75v0a5,5,0,0,1-1.51,4.33l-1.23,1.18L71.66,92.4l3.62-3.18a4.94,4.94,0,0,1,5.6-.63l5.2,2.84a1.88,1.88,0,1,0,1.81-3.29h0l-5.2-2.84a8.69,8.69,0,0,0-9.86,1.1l-8.43,7.42a5,5,0,0,1-6.13.34c-12.7-8.9-21.92-18.68-28.19-29.92a4.94,4.94,0,0,1,.73-5.82l6.68-7.05a8.69,8.69,0,0,0,1.45-9.82L27.69,19.1A8.83,8.83,0,0,0,13.8,16.56L9.54,20.5a29.45,29.45,0,0,0-9,16.28A29.08,29.08,0,0,0,3,55.18l0,.07c1.8,3.63,3.73,7.17,5.75,10.53.34.57.71,1.16,1.09,1.78a1.87,1.87,0,0,0,3.18-2L12,63.85c-2-3.27-3.86-6.72-5.6-10.25l0-.06A25.9,25.9,0,0,1,11.72,23.6L28.63,55.25l-.56.6a8.68,8.68,0,0,0-1.29,10.23C33.34,77.82,42.92,88,56.09,97.24a8.71,8.71,0,0,0,10.76-.6L68.68,95l30.94,17.4,0,0a25.8,25.8,0,0,1-29.72,4.34A144.38,144.38,0,0,1,18.51,73.65a1.87,1.87,0,1,0-3.06,2.16l0,0a148,148,0,0,0,52.66,44.29,29.52,29.52,0,0,0,34-5l4.09-3.92a8.73,8.73,0,0,0,2.64-7.48.41.41,0,0,0,0-.11ZM14.57,21l1.78-1.65a5.07,5.07,0,0,1,7.17.29,5,5,0,0,1,.81,1.17L35.56,43.23a4.93,4.93,0,0,1-.82,5.57l-3.4,3.59Z"/><path id="Path_52" data-name="Path 52" d="M112.89,39.37a6.55,6.55,0,1,0-6.55,6.55A6.55,6.55,0,0,0,112.89,39.37Zm-9.35,0a2.8,2.8,0,1,1,2.8,2.8,2.8,2.8,0,0,1-2.8-2.8Z"/><path id="Path_53" data-name="Path 53" d="M93.76,39.37a6.55,6.55,0,1,0-6.55,6.55A6.55,6.55,0,0,0,93.76,39.37Zm-9.35,0a2.8,2.8,0,1,1,2.8,2.8,2.8,2.8,0,0,1-2.8-2.8Z"/><path id="Path_54" data-name="Path 54" d="M61.54,39.37a6.55,6.55,0,1,0,6.55-6.55h0A6.55,6.55,0,0,0,61.54,39.37Zm6.55-2.8a2.8,2.8,0,1,1-2.8,2.8,2.8,2.8,0,0,1,2.8-2.8Z"/></g></svg>