<svg id="Layer_1" data-name="Layer 1" xmlns="http://www.w3.org/2000/svg" viewBox="0 0 128 128"><path d="M66.6,128a78,78,0,0,1-18-2.12A55.55,55.55,0,0,1,32,119.08a50.86,50.86,0,0,1-13.17-11.77,44.5,44.5,0,0,1-8.13-17.13l-.6-2.59L47.67,78.8H44V46.58H50.4L12.28,38.47l.8-2.76a48.19,48.19,0,0,1,8.85-16.93,47.26,47.26,0,0,1,13.13-11,55.84,55.84,0,0,1,15.7-5.95A76.16,76.16,0,0,1,67,0,73,73,0,0,1,83.5,2,50.79,50.79,0,0,1,99.21,8.35,38.17,38.17,0,0,1,111,19.82a30.41,30.41,0,0,1,4.7,17.2A25.15,25.15,0,0,1,110,54.3,28.91,28.91,0,0,1,101.5,61,32.22,32.22,0,0,1,105,63.14a31.36,31.36,0,0,1,6.89,6.62A29.24,29.24,0,0,1,116.3,78a27.21,27.21,0,0,1,1.54,9,36.71,36.71,0,0,1-4.6,18.77,39.5,39.5,0,0,1-12,12.88,50.11,50.11,0,0,1-16.46,7.19A76,76,0,0,1,66.63,128Zm-50-36.45A39,39,0,0,0,23.07,104a45.52,45.52,0,0,0,11.78,10.52,50.32,50.32,0,0,0,14.93,6.15,72.89,72.89,0,0,0,16.82,2h0a71.28,71.28,0,0,0,16.91-2.06,45.26,45.26,0,0,0,14.74-6.43,34.12,34.12,0,0,0,10.32-11.09A31.48,31.48,0,0,0,112.51,87a22.12,22.12,0,0,0-1.24-7.3A24.18,24.18,0,0,0,107.65,73a26.55,26.55,0,0,0-5.74-5.51,28.06,28.06,0,0,0-7.41-3.74l-1.94-.64.25-4.59L94.64,58a23.52,23.52,0,0,0,11.26-7.15,20,20,0,0,0,4.5-13.77,25.29,25.29,0,0,0-3.86-14.38,32.68,32.68,0,0,0-10.12-9.81A46.09,46.09,0,0,0,82.3,7.15,69.07,69.07,0,0,0,67,5.33,71.6,71.6,0,0,0,51.89,7a50.45,50.45,0,0,0-14.2,5.38,41.93,41.93,0,0,0-11.63,9.79,42.74,42.74,0,0,0-7,12.31L49.89,41a13.88,13.88,0,0,1,4.64-6.44,15.2,15.2,0,0,1,9.15-3.09h0a16.51,16.51,0,0,1,7.39,1.76,8,8,0,0,1,4.41,7.61,9.26,9.26,0,0,1-5.31,9.08,27,27,0,0,1-11.24,2H49.29V73.46h8.49a40,40,0,0,1,13.08,1.76,9.24,9.24,0,0,1,6.48,9.5A9.37,9.37,0,0,1,76,89.82a10.8,10.8,0,0,1-3.34,3.26,13.45,13.45,0,0,1-4.1,1.64,18.38,18.38,0,0,1-4,.47,16.43,16.43,0,0,1-11.73-4.3A17.94,17.94,0,0,1,48,84.2ZM51.92,78.8l.41,1.59a12.86,12.86,0,0,0,4,6.53,11.3,11.3,0,0,0,8.06,2.94,12.73,12.73,0,0,0,2.94-.34,8.33,8.33,0,0,0,2.51-1A5.24,5.24,0,0,0,71.46,87,3.92,3.92,0,0,0,72,84.77v-.35a3.91,3.91,0,0,0-2.74-4.11,35,35,0,0,0-11.4-1.52Zm2.36-32.22h4.81a22.06,22.06,0,0,0,9-1.54,3.88,3.88,0,0,0,2.1-3.89l0-.25,0-.25A2.68,2.68,0,0,0,68.73,38a11.33,11.33,0,0,0-5-1.19h0a9.76,9.76,0,0,0-5.92,2,8.45,8.45,0,0,0-3.24,5.67Z"/></svg>