<svg id="Layer_1" data-name="Layer 1" xmlns="http://www.w3.org/2000/svg" viewBox="0 0 128 128"><g id="tools"><path id="Path_97" data-name="Path 97" d="M126.2,104.8a16.55,16.55,0,0,0-5.79-11.89L80.5,57.85l24.42-24.43,9-3.64a2.48,2.48,0,0,0,1.28-1.19l7-14.3a2.42,2.42,0,0,0-.47-2.78l-7.12-7.12a2.42,2.42,0,0,0-2.82-.45L97.66,11.1a2.46,2.46,0,0,0-1.15,1.25l-3.64,9L67.66,46.57,56.18,36.49A24.9,24.9,0,0,0,23.89,5.08a2.44,2.44,0,0,0-1.42,3.13,2.37,2.37,0,0,0,.56.87L33.93,20l-2,7.68-7.67,2-10.9-10.9a2.42,2.42,0,0,0-4,.86,24.89,24.89,0,0,0,31.4,32.29L47,59.05a12.11,12.11,0,0,0-8.16,3.54l-9.35,9.35a2.43,2.43,0,0,0,3.3,3.57l.23-.23L42.26,66a7.31,7.31,0,0,1,10.31,0l2.14,2.13L18.59,104.25a2.43,2.43,0,0,0,3.4,3.47l0,0,36-36L61.82,76A7.31,7.31,0,0,1,60.28,84L27,117.31a7.69,7.69,0,0,1-9.23,1.35,8.53,8.53,0,0,0-9.7-9.47A7.62,7.62,0,0,1,9,99.3l8.45-8.45A2.43,2.43,0,0,0,14,87.38l0,0L5.54,95.87a12.66,12.66,0,0,0-3.75,8.78,12,12,0,0,0,3.52,8.77l.17.17a2.41,2.41,0,0,0,2.51.58,3.68,3.68,0,0,1,4.74,4.72,2.44,2.44,0,0,0,.7,2.62,12.08,12.08,0,0,0,8,3,12.78,12.78,0,0,0,9-3.75l33.29-33.3a12,12,0,0,0,3.22-5.68l30.22,34.4A16.55,16.55,0,0,0,109,122h.67a16.49,16.49,0,0,0,16.5-16.48c0-.23,0-.46,0-.68ZM112.38,9.07,117,13.73l-5.79,11.9-7.1,2.88-6.35-6.36L100.68,15ZM94.94,26.17l5.18,5.18L76.84,54.63l-5.52-4.84Zm23,87.53a11.64,11.64,0,0,1-16.46,0c-.22-.22-.44-.46-.64-.7l0,0L65.93,73.25a12,12,0,0,0-2.23-3l-3.43-3.41-17-19.35a2.42,2.42,0,0,0-2.77-.63A20,20,0,0,1,12.86,25.2l8.92,8.91a2.43,2.43,0,0,0,2.34.63L34.51,32a2.44,2.44,0,0,0,1.73-1.73L39,19.87a2.42,2.42,0,0,0-.64-2.34L29.44,8.62A20,20,0,0,1,51.07,36.25,2.43,2.43,0,0,0,51.7,39L66.14,51.71l0,0,9.18,8.06h0l41.87,36.79,0,0a11.63,11.63,0,0,1,1.34,16.4c-.2.24-.42.48-.64.7Z"/><path id="Path_98" data-name="Path 98" d="M112.39,105a2.43,2.43,0,1,0-1.31,3.17,2.78,2.78,0,0,0,.42-.22A2.45,2.45,0,0,0,112.39,105Z"/><path id="Path_99" data-name="Path 99" d="M71.12,63.33a2.43,2.43,0,0,0-3.43,3.45L99.34,98.26a2.43,2.43,0,0,0,3.42-3.44Z"/><path id="Path_100" data-name="Path 100" d="M21.59,82.59a2.43,2.43,0,1,0,.67-3.37,2.69,2.69,0,0,0-.37.3A2.45,2.45,0,0,0,21.59,82.59Z"/></g></svg>