<svg id="Layer_1" data-name="Layer 1" xmlns="http://www.w3.org/2000/svg" viewBox="0 0 128 128"><path d="M117.57,128H15.51V92.88l48.25-38.6A18.9,18.9,0,0,0,67.9,50a7,7,0,0,0,1.38-4.07,6.26,6.26,0,0,0-1.48-4.14,5.42,5.42,0,0,0-4.39-1.59h-.28a7.28,7.28,0,0,0-5.94,2.85,14.76,14.76,0,0,0-3,8.82v3l-43.78-5,.21-2.57A51.74,51.74,0,0,1,17,26.14,49.15,49.15,0,0,1,30,11.33,52.16,52.16,0,0,1,47.17,2.71,69.29,69.29,0,0,1,66.36,0h.18A74.11,74.11,0,0,1,84.63,2.27a49.84,49.84,0,0,1,16.26,7.2,38.78,38.78,0,0,1,11.79,13,38.32,38.32,0,0,1,4.55,19.25,42.47,42.47,0,0,1-2.07,13.81,38.39,38.39,0,0,1-5.62,10.79,52.05,52.05,0,0,1-7.82,8.36c-2.8,2.41-5.79,4.73-8.88,6.9l-10.7,7.6h35.43Zm-96.72-5.33h91.39V94.47H65.42l24.35-17.3c3-2.08,5.81-4.29,8.48-6.59a46.91,46.91,0,0,0,7-7.49,33.09,33.09,0,0,0,4.83-9.28,37.34,37.34,0,0,0,1.81-12.17A33.13,33.13,0,0,0,108,25,33.41,33.41,0,0,0,97.88,13.87,44.54,44.54,0,0,0,83.34,7.45,68.72,68.72,0,0,0,66.53,5.33h-.16A64,64,0,0,0,48.65,7.84a46.89,46.89,0,0,0-15.46,7.73A43.76,43.76,0,0,0,21.68,28.76a46.2,46.2,0,0,0-5.45,16.38L49.11,48.9A20.16,20.16,0,0,1,53,39.81,12.79,12.79,0,0,1,63,34.88h.06a10.66,10.66,0,0,1,8.7,3.36A11.61,11.61,0,0,1,74.61,46a12.25,12.25,0,0,1-2.38,7.09A23.79,23.79,0,0,1,67,58.52L20.85,95.44Z"/></svg>