<svg id="Layer_1" data-name="Layer 1" xmlns="http://www.w3.org/2000/svg" viewBox="0 0 128 128"><g id="Group_82" data-name="Group 82"><g id="Group_79" data-name="Group 79"><path id="Path_38" data-name="Path 38" d="M86.46,72.23a2.25,2.25,0,0,0,2.25,2.26H128V72.23A64.18,64.18,0,0,0,68,8.45l-1.73-.11V2.28a2.27,2.27,0,1,0-4.53,0V8.34L60,8.45A64.14,64.14,0,0,0,0,72.23v2.26H61.66a.09.09,0,0,1,.08.08h0v36.1A17.11,17.11,0,0,0,77.31,128,16.67,16.67,0,0,0,95.05,112.4c0-.36,0-.71,0-1.07v-2.06a2.27,2.27,0,0,0-4.53,0v1.58A12.47,12.47,0,0,1,79.9,123.39a12.16,12.16,0,0,1-13.53-10.61,11.76,11.76,0,0,1-.09-1.45V74.57a.09.09,0,0,1,.08-.08h5.5a2.26,2.26,0,0,0,2.26-2.26h0A2.27,2.27,0,0,0,71.86,70H33.37l.08-1.91c1-27.39,11.91-50.31,25.91-54.53l2.37-.72V34.55a2.27,2.27,0,0,0,4.53,0h0V12.8l2.37.72c14,4.22,24.88,27.14,25.89,54.53L94.6,70H88.72a2.27,2.27,0,0,0-2.27,2.26h0Zm-43-52.1c-8.6,11.15-13.89,28.66-14.55,48.05L28.86,70H4.54l.14-2A59.27,59.27,0,0,1,41.29,17.29l6.42-2.66Zm41.05,0-4.24-5.5,6.42,2.66A59.25,59.25,0,0,1,123.31,68l.14,2H99.13l-.06-1.78C98.43,48.79,93.12,31.28,84.52,20.13ZM80.28,74.49h0a2.27,2.27,0,0,0,2.27-2.26h0A2.26,2.26,0,0,0,80.29,70h0A2.26,2.26,0,0,0,78,72.22h0a2.26,2.26,0,0,0,2.25,2.27Z"/></g><g id="Group_80" data-name="Group 80"><path id="Path_39" data-name="Path 39" d="M66.2,43.4A2.2,2.2,0,1,1,64,41.2h0a2.18,2.18,0,0,1,2.2,2.18Z"/></g><g id="Group_81" data-name="Group 81"><path id="Path_40" data-name="Path 40" d="M66.2,52.23v7.52a2.2,2.2,0,1,1-4.4.15V52.23a2.14,2.14,0,0,1,2.12-2.14h.16A2.14,2.14,0,0,1,66.2,52.23Z"/></g></g></svg>