<svg xmlns="http://www.w3.org/2000/svg" xmlns:xlink="http://www.w3.org/1999/xlink" viewBox="0 0 867.19 754.31"><defs><style>.a{fill:url(#a);}.b,.y{fill:#fff;}.c{opacity:0.6;}.d{fill:#447ae3;}.e{fill:url(#b);}.f{fill:url(#c);}.g{fill:#fc6600;}.h{fill:url(#d);}.i{fill:url(#e);}.j{fill:url(#f);}.k{fill:url(#g);}.l{fill:url(#h);}.m{fill:url(#i);}.n{fill:url(#j);}.o{fill:url(#k);}.p{fill:url(#l);}.q,.x{fill:#535461;}.q{opacity:0.25;}.q,.y{isolation:isolate;}.r,.s,.t,.u{fill:none;stroke-miterlimit:10;stroke-width:2px;}.r{stroke:url(#m);}.s{stroke:#535461;}.t{stroke:url(#n);}.u{stroke:url(#o);}.v{opacity:0.7;}.w{fill:url(#p);}.y{opacity:0.1;}.z{fill:url(#q);}</style><linearGradient id="a" x1="-332.4" y1="89.4" x2="-332.4" y2="153.78" gradientTransform="translate(124.88 620.92) rotate(180)" gradientUnits="userSpaceOnUse"><stop offset="0" stop-color="gray" stop-opacity="0.25"/><stop offset="0.54" stop-color="gray" stop-opacity="0.12"/><stop offset="1" stop-color="gray" stop-opacity="0.1"/></linearGradient><linearGradient id="b" x1="-508.8" y1="451.13" x2="-508.8" y2="515.51" gradientTransform="translate(216.68 -159.94) rotate(-90)" xlink:href="#a"/><linearGradient id="c" x1="-420.72" y1="414.29" x2="-420.72" y2="478.67" gradientTransform="translate(263.51 72.15) rotate(-90)" xlink:href="#a"/><linearGradient id="d" x1="-355.41" y1="399.21" x2="-355.41" y2="463.59" gradientTransform="translate(35.41 627.24) rotate(180)" xlink:href="#a"/><linearGradient id="e" x1="-385.53" y1="736.3" x2="-385.53" y2="800.68" gradientTransform="translate(-134.98 -340.14) rotate(-90)" xlink:href="#a"/><linearGradient id="f" x1="-115.85" y1="474.05" x2="-115.85" y2="538.43" gradientTransform="translate(137.26 73.55) rotate(-90)" xlink:href="#a"/><linearGradient id="g" x1="-19.87" y1="260.92" x2="-19.87" y2="325.3" gradientTransform="translate(88.9 717.34) rotate(180)" xlink:href="#a"/><linearGradient id="h" x1="-152.37" y1="458.2" x2="-152.37" y2="522.58" gradientTransform="translate(-138.9 121.43) rotate(-90)" xlink:href="#a"/><linearGradient id="i" x1="-213.17" y1="124.43" x2="-213.17" y2="188.81" gradientTransform="translate(204.86 204.64) rotate(-90)" xlink:href="#a"/><linearGradient id="j" x1="-82.97" y1="431.22" x2="-82.97" y2="495.6" gradientTransform="translate(37.61 706.41) rotate(180)" xlink:href="#a"/><linearGradient id="k" x1="-129.64" y1="638.36" x2="-129.64" y2="702.74" gradientTransform="translate(-306.97 -36.21) rotate(-90)" xlink:href="#a"/><linearGradient id="l" x1="-51.61" y1="207.37" x2="-51.61" y2="271.75" gradientTransform="translate(133.72 184.98) rotate(-90)" xlink:href="#a"/><linearGradient id="m" x1="438.22" y1="184.64" x2="541.32" y2="184.64" gradientTransform="matrix(1, 0, 0, -1, -166.4, 678.36)" xlink:href="#a"/><linearGradient id="n" x1="554.46" y1="226.9" x2="586.42" y2="226.9" gradientTransform="matrix(1, 0, 0, -1, -166.4, 678.36)" xlink:href="#a"/><linearGradient id="o" x1="669.68" y1="169.32" x2="700.57" y2="169.32" gradientTransform="matrix(1, 0, 0, -1, -166.4, 678.36)" xlink:href="#a"/><linearGradient id="p" x1="571.06" y1="245.41" x2="571.06" y2="612.98" gradientTransform="matrix(1, 0, 0, -1, -166.4, 678.36)" xlink:href="#a"/><linearGradient id="q" x1="-313.48" y1="-41.1" x2="-313.48" y2="124.75" gradientTransform="translate(120.51 706.51) rotate(180)" xlink:href="#a"/></defs><rect class="a" x="404.9" y="467.14" width="104.76" height="64.38" transform="translate(-123.59 151.45) rotate(-16.6)"/><rect class="b" x="406.04" y="468.89" width="101.21" height="60.09" transform="translate(-123.51 151.25) rotate(-16.6)"/><g class="c"><rect class="d" x="406.23" y="485.58" width="12.88" height="9.53" transform="translate(-122.89 138.33) rotate(-16.6)"/><rect class="d" x="421.81" y="501.41" width="49.44" height="3.09" transform="translate(-125.08 148.53) rotate(-16.6)"/><rect class="d" x="436.98" y="506.92" width="36.05" height="2.06" transform="translate(-126.15 151.16) rotate(-16.6)"/></g><rect class="e" x="667.8" y="296.48" width="64.38" height="104.76" transform="matrix(0.19, -0.98, 0.98, 0.19, 223.76, 969.26)"/><rect class="b" x="667.96" y="298.57" width="59.98" height="101.03" transform="translate(222.4 967.84) rotate(-79.03)"/><g class="c"><rect class="d" x="659.75" y="313.87" width="9.53" height="12.88" transform="translate(223.09 911.34) rotate(-78.98)"/><rect class="d" x="687.12" y="322.46" width="3.09" height="49.44" transform="translate(216.25 956.78) rotate(-78.98)"/><rect class="d" x="692.83" y="337.52" width="2.06" height="36.05" transform="translate(212.24 968.65) rotate(-78.98)"/></g><rect class="f" x="677.8" y="440.49" width="64.38" height="104.76" transform="translate(-137.5 323.25) rotate(-23.45)"/><rect class="b" x="680.25" y="441.6" width="60.09" height="101.21" transform="translate(-137.21 323.31) rotate(-23.45)"/><g class="c"><rect class="g" x="708.66" y="441.04" width="9.53" height="12.88" transform="translate(-119.15 320.87) rotate(-23.45)"/><rect class="g" x="703.4" y="457.89" width="3.09" height="49.44" transform="translate(-133.83 320.39) rotate(-23.45)"/><rect class="g" x="699.96" y="473.6" width="2.06" height="36.05" transform="translate(-137.74 319.56) rotate(-23.45)"/></g><rect class="h" x="338.44" y="163.65" width="104.76" height="64.38" transform="translate(-39.66 119.81) rotate(-16.6)"/><rect class="b" x="339.59" y="165.41" width="101.21" height="60.09" transform="translate(-39.58 119.62) rotate(-16.6)"/><g class="c"><rect class="d" x="339.72" y="182.12" width="12.88" height="9.53" transform="translate(-38.96 106.68) rotate(-16.6)"/><rect class="d" x="355.3" y="197.95" width="49.44" height="3.09" transform="translate(-41.15 116.88) rotate(-16.6)"/><rect class="d" x="370.47" y="203.46" width="36.05" height="2.06" transform="translate(-42.23 119.51) rotate(-16.6)"/></g><rect class="i" x="601.32" y="-7" width="64.38" height="104.76" transform="translate(467.87 658.54) rotate(-78.98)"/><rect class="b" x="603.09" y="-5.84" width="60.09" height="101.21" transform="translate(468.17 657.66) rotate(-78.98)"/><g class="c"><rect class="d" x="593.27" y="10.4" width="9.53" height="12.88" transform="translate(467.19 600.62) rotate(-78.98)"/><rect class="d" x="620.64" y="18.99" width="3.09" height="49.44" transform="translate(460.35 646.06) rotate(-78.98)"/><rect class="d" x="626.35" y="34.04" width="2.06" height="36.05" transform="translate(456.35 657.93) rotate(-78.98)"/></g><rect class="j" x="611.31" y="137.02" width="64.38" height="104.76" transform="translate(-22.23 271.72) rotate(-23.45)"/><rect class="b" x="613.77" y="138.13" width="60.09" height="101.21" transform="translate(-21.93 271.79) rotate(-23.45)"/><g class="c"><rect class="g" x="642.18" y="137.58" width="9.53" height="12.88" transform="translate(-3.88 269.35) rotate(-23.45)"/><rect class="g" x="636.91" y="154.42" width="3.09" height="49.44" transform="translate(-18.56 268.87) rotate(-23.45)"/><rect class="g" x="633.47" y="170.14" width="2.06" height="36.05" transform="translate(-22.48 268.04) rotate(-23.45)"/></g><rect class="k" x="56.39" y="392.04" width="104.76" height="64.38" transform="translate(-116.66 48.75) rotate(-16.6)"/><rect class="b" x="57.54" y="393.8" width="101.21" height="60.09" transform="translate(-116.58 48.56) rotate(-16.6)"/><g class="c"><rect class="d" x="57.72" y="410.55" width="12.88" height="9.53" transform="translate(-115.98 35.64) rotate(-16.6)"/><rect class="d" x="73.31" y="426.38" width="49.44" height="3.09" transform="translate(-118.17 45.84) rotate(-16.6)"/><rect class="d" x="88.49" y="431.89" width="36.05" height="2.06" transform="translate(-119.24 48.47) rotate(-16.6)"/></g><rect class="l" x="319.3" y="221.41" width="64.38" height="104.76" transform="translate(15.56 566.46) rotate(-78.98)"/><rect class="b" x="319.97" y="223.05" width="59.98" height="101.03" transform="translate(14.79 565.07) rotate(-79.03)"/><g class="c"><rect class="d" x="311.24" y="238.8" width="9.53" height="12.88" transform="translate(14.88 508.54) rotate(-78.98)"/><rect class="d" x="338.62" y="247.39" width="3.09" height="49.44" transform="translate(8.05 553.99) rotate(-78.98)"/><rect class="d" x="344.33" y="262.45" width="2.06" height="36.05" transform="translate(4.04 565.86) rotate(-78.98)"/></g><rect class="m" x="329.29" y="365.43" width="64.38" height="104.76" transform="translate(-136.41 178.36) rotate(-23.45)"/><rect class="b" x="331.75" y="366.54" width="60.09" height="101.21" transform="translate(-136.12 178.43) rotate(-23.45)"/><g class="c"><rect class="g" x="360.16" y="365.98" width="9.53" height="12.88" transform="translate(-118.07 175.98) rotate(-23.45)"/><rect class="g" x="354.9" y="382.82" width="3.09" height="49.44" transform="translate(-132.74 175.5) rotate(-23.45)"/><rect class="g" x="351.46" y="398.53" width="2.06" height="36.05" transform="translate(-136.66 174.68) rotate(-23.45)"/></g><rect class="n" x="68.2" y="210.81" width="104.76" height="64.38" transform="translate(-64.4 44.58) rotate(-16.6)"/><rect class="b" x="71.05" y="211.79" width="101.5" height="60.26" transform="translate(-64.75 45.56) rotate(-16.81)"/><g class="c"><rect class="d" x="69.5" y="229.33" width="12.88" height="9.53" transform="translate(-63.71 31.45) rotate(-16.6)"/><rect class="d" x="85.08" y="245.16" width="49.44" height="3.09" transform="translate(-65.9 41.65) rotate(-16.6)"/><rect class="d" x="100.26" y="250.67" width="36.05" height="2.06" transform="translate(-66.98 44.28) rotate(-16.6)"/></g><rect class="o" x="330.27" y="40.92" width="64.27" height="104.58" transform="translate(201.93 431.24) rotate(-79.03)"/><rect class="b" x="332.86" y="41.34" width="60.09" height="101.21" transform="translate(203.29 430.59) rotate(-78.98)"/><g class="c"><rect class="d" x="323.04" y="57.58" width="9.53" height="12.88" transform="translate(202.3 373.55) rotate(-78.98)"/><rect class="d" x="350.41" y="66.16" width="3.09" height="49.44" transform="translate(195.47 418.98) rotate(-78.98)"/><rect class="d" x="356.12" y="81.22" width="2.06" height="36.05" transform="translate(191.46 430.84) rotate(-78.98)"/></g><rect class="p" x="341.09" y="184.21" width="64.38" height="104.76" transform="translate(-63.32 168.09) rotate(-23.45)"/><rect class="b" x="343.54" y="185.32" width="60.09" height="101.21" transform="translate(-63.03 168.15) rotate(-23.45)"/><g class="c"><rect class="g" x="371.96" y="184.76" width="9.53" height="12.88" transform="translate(-44.97 165.71) rotate(-23.45)"/><rect class="g" x="366.69" y="201.61" width="3.09" height="49.44" transform="translate(-59.65 165.23) rotate(-23.45)"/><rect class="g" x="363.26" y="217.3" width="2.06" height="36.05" transform="translate(-63.56 164.4) rotate(-23.45)"/></g><circle class="q" cx="63.9" cy="61.26" r="5.47"/><circle class="q" cx="634.96" cy="540.36" r="5.47"/><circle class="q" cx="151.79" cy="513.16" r="5.47"/><circle class="q" cx="685.81" cy="437.02" r="5.47"/><circle class="q" cx="737.28" cy="186.1" r="5.47"/><polygon class="q" points="333.44 4.87 328.58 4.87 328.58 0 326.59 0 326.59 4.87 321.73 4.87 321.73 6.85 326.59 6.85 326.59 11.71 328.58 11.71 328.58 6.85 333.44 6.85 333.44 4.87"/><polygon class="q" points="146.29 79.4 141.43 79.4 141.43 74.54 139.44 74.54 139.44 79.4 134.58 79.4 134.58 81.39 139.44 81.39 139.44 86.25 141.43 86.25 141.43 81.39 146.29 81.39 146.29 79.4"/><polygon class="q" points="70.16 357.13 65.3 357.13 65.3 352.27 63.31 352.27 63.31 357.13 58.45 357.13 58.45 359.12 63.31 359.12 63.31 363.98 65.3 363.98 65.3 359.12 70.16 359.12 70.16 357.13"/><polygon class="q" points="59.23 159.07 54.36 159.07 54.36 154.2 52.38 154.2 52.38 159.07 47.51 159.07 47.51 161.05 52.38 161.05 52.38 165.92 54.36 165.92 54.36 161.05 59.23 161.05 59.23 159.07"/><polygon class="q" points="11.71 295.17 6.85 295.17 6.85 290.3 4.87 290.3 4.87 295.17 0 295.17 0 297.15 4.87 297.15 4.87 302.01 6.85 302.01 6.85 297.15 11.71 297.15 11.71 295.17"/><polygon class="q" points="867.19 224.99 862.33 224.99 862.33 220.13 860.34 220.13 860.34 224.99 855.48 224.99 855.48 226.98 860.34 226.98 860.34 231.84 862.33 231.84 862.33 226.98 867.19 226.98 867.19 224.99"/><polygon class="q" points="697.76 288.26 692.9 288.26 692.9 283.39 690.91 283.39 690.91 288.26 686.05 288.26 686.05 290.24 690.91 290.24 690.91 295.11 692.9 295.11 692.9 290.24 697.76 290.24 697.76 288.26"/><polygon class="q" points="553.08 117.62 548.21 117.62 548.21 112.76 546.23 112.76 546.23 117.62 541.36 117.62 541.36 119.61 546.23 119.61 546.23 124.47 548.21 124.47 548.21 119.61 553.08 119.61 553.08 117.62"/><path class="r" d="M273.9,395.74c-3.5,11.36,1.75,24.79,12,30.77,4.29,2.5,9.24,3.77,13.41,6.48,9.05,5.89,12.62,17.19,15.56,27.58,3.37,11.95,6.76,24.58,3.67,36.6-2,7.66-6.45,14.44-9,21.94a45.79,45.79,0,0,0-2.17,19.54c.37,3.5,1.25,7.14,3.64,9.72,3.46,3.73,9,4.29,14,5.19a68.2,68.2,0,0,1,49,38"/><path class="s" d="M275,395.74c-3.5,11.36,1.75,24.79,12,30.77,4.29,2.5,9.24,3.77,13.41,6.48,9.05,5.89,12.62,17.19,15.56,27.58,3.37,11.95,6.76,24.58,3.67,36.6-2,7.66-6.45,14.44-9,21.94a45.79,45.79,0,0,0-2.17,19.54c.37,3.5,1.25,7.14,3.64,9.72,3.46,3.73,9,4.29,14,5.19a68.2,68.2,0,0,1,49,38"/><path class="t" d="M407.44,310.86c-8.63,12-17.59,25-18.33,39.77-1.13,22.73,17,41.32,25.17,62.58a74.37,74.37,0,0,1-2.5,58.15c-4,8.19-9.61,16.32-8.92,25.39.42,5.54,3.19,10.57,5.42,15.66a88.29,88.29,0,0,1-5.12,79.72"/><path class="s" d="M408.51,310.86c-8.63,12-17.59,25-18.33,39.77-1.13,22.73,17,41.32,25.17,62.58a74.41,74.41,0,0,1-2.49,58.15c-4,8.19-9.61,16.32-8.92,25.39.42,5.54,3.19,10.57,5.42,15.66a88.29,88.29,0,0,1-5.12,79.72"/><path class="u" d="M528.6,419.12l4.17,34c.55,4.52,1,9.45-1.4,13.3-2.3,3.65-6.61,5.39-10,8.09-11,8.85-10,25.85-6.24,39.48s9.28,28.27,4,41.38c-2.18,5.41-6,10-8.91,15A46.05,46.05,0,0,0,504.71,599"/><path class="s" d="M529.6,419.12l4.17,34c.55,4.52,1,9.45-1.4,13.3-2.3,3.65-6.61,5.39-10,8.09-11,8.85-10,25.85-6.24,39.48s9.28,28.27,4,41.38c-2.18,5.41-6,10-8.91,15A46.05,46.05,0,0,0,505.71,599"/><g class="v"><path class="w" d="M636.82,279.25a100.9,100.9,0,0,0-132.05-95.89,121.12,121.12,0,0,0,1.29-17.12A100.84,100.84,0,0,0,304.6,159a100.89,100.89,0,0,0-132.1,95.88c0,50.6,37.26,122.57,85.85,135.32l7.55,4.32-4.1,14.06h24.3l-5.28-14.08,7.52-4.3c37.54-9.85,68.31-55.05,80.37-98.44a73.59,73.59,0,0,0,21.51,9.79l7.55,4.32-4.1,14.06H418l-5.28-14.08,7.52-4.3a70.16,70.16,0,0,0,16-6.5c6.49,48.65,41,108.06,84.74,119.53l7.55,4.32L524.4,433h24.3l-5.28-14.08,7.52-4.3C599.6,401.82,636.82,329.85,636.82,279.25Z"/></g><polygon class="d" points="289.93 403.41 266.42 403.41 270.53 389.3 284.64 389.3 289.93 403.41"/><path class="d" d="M375.17,254.69c0,53.89-43.69,132.85-97.58,132.85S180,308.54,180,254.69a97.58,97.58,0,0,1,195.16,0Z"/><polygon class="x" points="284.64 389.89 270.53 389.89 262.3 385.19 292.87 385.19 284.64 389.89"/><path class="y" d="M242.32,178.86s-41.15,22.34-47,67"/><polygon class="g" points="417.54 317.63 394.03 317.63 398.14 303.52 412.25 303.52 417.54 317.63"/><path class="g" d="M502.78,168.9c0,53.89-43.69,132.85-97.58,132.85S307.6,222.8,307.6,168.9a97.58,97.58,0,1,1,195.16,0Z"/><polygon class="x" points="412.25 304.11 398.14 304.11 389.91 299.4 420.48 299.4 412.25 304.11"/><path class="y" d="M369.93,93.07s-41.15,22.34-47,67"/><polygon class="d" points="544.08 427 520.56 427 524.68 412.9 538.78 412.9 544.08 427"/><path class="d" d="M629.32,278.28c0,53.89-43.69,132.85-97.58,132.85s-97.58-79-97.58-132.85a97.58,97.58,0,0,1,195.16,0Z"/><polygon class="x" points="538.78 413.48 524.68 413.48 516.45 408.78 547.01 408.78 538.78 413.48"/><path class="y" d="M496.46,202.45s-41.15,22.34-47,67"/><rect class="z" x="299.28" y="581.61" width="270.2" height="166.06" transform="translate(-32.65 22.52) rotate(-2.86)"/><rect class="b" x="302.73" y="584.27" width="260.71" height="154.78" transform="translate(-33.25 23) rotate(-2.93)"/><rect class="d" x="311.38" y="601.39" width="33.17" height="24.55" transform="matrix(1, -0.05, 0.05, 1, -30.94, 17.57)"/><rect class="d" x="341.36" y="661.88" width="127.37" height="7.96" transform="translate(-33.51 21.57) rotate(-2.93)"/><rect class="d" x="376.77" y="680.87" width="92.88" height="5.31" transform="translate(-34.39 22.53) rotate(-2.93)"/></svg>