<svg xmlns="http://www.w3.org/2000/svg" viewBox="0 0 298.3 97.86"><defs><style>.a,.b,.c,.d,.e,.g,.h,.i,.j,.k,.l,.m,.n{fill:none;}.a,.b,.c,.d,.e,.i,.j,.k,.l,.m{stroke:#f38240;stroke-width:0.25px;}.a,.b,.c,.d,.e,.g{stroke-miterlimit:10;}.b{stroke-dasharray:1.95 1.95;}.c{stroke-dasharray:1.95 1.95;}.d{stroke-dasharray:1.95 1.95;}.e{stroke-dasharray:1.96 1.96;}.f{fill:#fff;}.g,.h{stroke:#fc6600;stroke-width:0.5px;}.h{stroke-linejoin:round;}.i,.j,.k,.l,.m{stroke-linejoin:bevel;}.j{stroke-dasharray:2.06 2.06;}.k{stroke-dasharray:2.1 2.1;}.l{stroke-dasharray:1.96 1.96;}.m{stroke-dasharray:2.07 2.07;}.o,.p,.q{fill:#008fd3;}.p{font-size:67px;}.p,.q{font-family:AvenirNextLTPro-Bold, Avenir Next LT Pro;font-weight:700;}.q{font-size:21px;}.r{letter-spacing:-0.02em;}.s{letter-spacing:0em;}.t{letter-spacing:-0.06em;}.u{fill:#fc6600;}</style></defs><polyline class="a" points="111.16 0.32 112.16 0.32 112.16 1.31"/><line class="b" x1="112.16" y1="3.26" x2="112.16" y2="72.34"/><polyline class="a" points="112.16 73.32 112.16 74.32 111.16 74.32"/><line class="c" x1="109.21" y1="74.32" x2="40.09" y2="74.31"/><polyline class="a" points="39.12 74.31 38.12 74.31 38.11 73.31"/><line class="d" x1="38.1" y1="71.37" x2="37.74" y2="2.29"/><polyline class="a" points="37.73 1.31 37.73 0.32 38.73 0.32"/><line class="e" x1="40.69" y1="0.31" x2="110.18" y2="0.32"/><rect class="f" x="36.2" y="0.6" width="7.78" height="73.32"/><polygon class="g" points="74.2 92.83 0.3 92.83 0.3 18.28 74.14 18.28 74.2 92.83"/><polygon class="h" points="112.16 74.31 74.2 92.83 74.14 18.28 112.16 0.32 112.16 74.31"/><polygon class="h" points="112.16 0.32 74.14 18.28 0.3 18.01 37.87 0.25 112.16 0.32"/><polyline class="i" points="36.82 0.74 37.73 0.32 37.73 1.32"/><line class="j" x1="37.75" y1="3.38" x2="38.11" y2="72.28"/><polyline class="i" points="38.11 73.31 38.12 74.31 37.21 74.75"/><line class="k" x1="35.32" y1="75.66" x2="2.16" y2="91.65"/><polyline class="i" points="1.21 92.11 0.31 92.54 0.31 91.54"/><line class="l" x1="0.31" y1="89.58" x2="0.3" y2="20"/><polyline class="i" points="0.3 19.02 0.3 18.01 1.21 17.58"/><line class="m" x1="3.08" y1="16.7" x2="35.88" y2="1.19"/><rect class="n" y="22.31" width="74.5" height="74.5"/><polygon class="n" points="74.2 18.04 74.2 92.54 112.16 74.32 112.16 0.32 74.2 18.04"/><path class="o" d="M94.58,75.58l-10.14,4v-47l9.32-4.65c7.6-3.78,15.75-2.2,16.27,16C110.53,61.51,102.37,72.55,94.58,75.58ZM93.71,37.4l-3.17,1.52.19,27.78,3.11-1.29c4.78-2,9.23-7.36,9-18.32C102.62,36.32,98.19,35.27,93.71,37.4Z" transform="translate(-3.35 -2.66)"/><text class="p" transform="translate(15.31 81.52)">B</text><text class="q" transform="translate(122.38 72.92) scale(1.02 1)">DEP<tspan class="r" x="42.44" y="0">O</tspan><tspan class="s" x="59.81" y="0">ZI</tspan><tspan class="t" x="79.82" y="0">T</tspan><tspan x="90.76" y="0">ARE.RO</tspan></text><path class="u" d="M146.65,55.87H127.12V9.15h19.53c7.62,0,16.7,2.57,16.7,12,0,5.15-3.26,8.58-8,10.1v.13c5.61.92,10,4.75,10,10.89C165.35,52.44,156,55.87,146.65,55.87Zm-2.28-37.74h-5.82v9.63h6.37c4.43,0,7-1.78,7-5.08S149.35,18.13,144.37,18.13Zm.76,18h-6.58V46.77h6.65c3.74,0,8.31-1,8.31-5.55C153.51,37.33,150.18,36.08,145.13,36.08Z" transform="translate(-3.35 -2.66)"/><path class="u" d="M194.49,57.06c-13.07,0-22.76-10-22.76-24.81,0-15,9.69-24.42,22.76-24.42s22.82,9.44,22.82,24.42C217.31,47,207.61,57.06,194.49,57.06Zm0-39.07c-7.09,0-11.94,6.08-11.94,14.26,0,8.45,4.9,14.52,11.94,14.52s12-6.07,12-14.52C206.49,24.07,201.58,18,194.49,18Z" transform="translate(-3.35 -2.66)"/><path class="u" d="M249,55.74l-9.21-16.5-8.84,16.5H218.79l14.73-24.68L220,9h12.23l7.84,14.52L247.77,9h11.82l-13.31,22,15.21,24.68Z" transform="translate(-3.35 -2.66)"/><path class="u" d="M265.71,55.87V9.15h34.63v7.57H277.71V26.5H299.1v9H277.71v11.7h23.94v8.63Z" transform="translate(-3.35 -2.66)"/></svg>